<svg xmlns="http://www.w3.org/2000/svg" width="1080" viewBox="0 0 1080 240" height="240" version="1.0"><defs><clipPath id="a"><path d="M 0 57.539062 L 1080 57.539062 L 1080 231 L 0 231 Z M 0 57.539062"/></clipPath><clipPath id="b"><path d="M 0 32.347656 L 1080 32.347656 L 1080 206 L 0 206 Z M 0 32.347656"/></clipPath></defs><g clip-path="url(#a)"><path fill="#FFC72C" d="M 0 201.539062 L 45 209.566406 C 90 217.289062 180 233.789062 270 229.515625 C 360 225.539062 450 201.539062 540 173.566406 C 630 145.289062 720 113.789062 810 105.539062 C 900 97.289062 990 113.789062 1035 121.515625 L 1080 129.539062 L 1080 57.539062 L 1035 57.539062 C 990 57.539062 900 57.539062 810 57.539062 C 720 57.539062 630 57.539062 540 57.539062 C 450 57.539062 360 57.539062 270 57.539062 C 180 57.539062 90 57.539062 45 57.539062 L 0 57.539062 Z M 0 201.539062"/></g><g clip-path="url(#b)"><path fill="#FFF" d="M 0 176.347656 L 45 184.371094 C 90 192.097656 180 208.597656 270 204.324219 C 360 200.347656 450 176.347656 540 148.371094 C 630 120.097656 720 88.597656 810 80.347656 C 900 72.097656 990 88.597656 1035 96.324219 L 1080 104.347656 L 1080 32.347656 L 1035 32.347656 C 990 32.347656 900 32.347656 810 32.347656 C 720 32.347656 630 32.347656 540 32.347656 C 450 32.347656 360 32.347656 270 32.347656 C 180 32.347656 90 32.347656 45 32.347656 L 0 32.347656 Z M 0 176.347656"/></g><path fill="#0086CD" d="M 0 144 L 45 152.023438 C 90 159.75 180 176.25 270 171.976562 C 360 168 450 144 540 116.023438 C 630 87.75 720 56.25 810 48 C 900 39.75 990 56.25 1035 63.976562 L 1080 72 L 1080 0 L 1035 0 C 990 0 900 0 810 0 C 720 0 630 0 540 0 C 450 0 360 0 270 0 C 180 0 90 0 45 0 L 0 0 Z M 0 144"/></svg>