<svg xmlns="http://www.w3.org/2000/svg" width="1080" viewBox="0 0 1080 240" height="240" version="1.0"><path fill="#FDD10E" d="M 0 168 L 45 176.023438 C 90 183.75 180 200.25 270 195.976562 C 360 192 450 168 540 140.023438 C 630 111.75 720 80.25 810 72 C 900 63.75 990 80.25 1035 87.976562 L 1080 96 L 1080 24 L 1035 24 C 990 24 900 24 810 24 C 720 24 630 24 540 24 C 450 24 360 24 270 24 C 180 24 90 24 45 24 L 0 24 Z M 0 168"/><path fill="#0086CD" d="M 0 144 L 45 152.023438 C 90 159.75 180 176.25 270 171.976562 C 360 168 450 144 540 116.023438 C 630 87.75 720 56.25 810 48 C 900 39.75 990 56.25 1035 63.976562 L 1080 72 L 1080 0 L 1035 0 C 990 0 900 0 810 0 C 720 0 630 0 540 0 C 450 0 360 0 270 0 C 180 0 90 0 45 0 L 0 0 Z M 0 144"/></svg>