<?xml version="1.0" encoding="UTF-8"?>
<!DOCTYPE svg PUBLIC "-//W3C//DTD SVG 1.1//EN" "http://www.w3.org/Graphics/SVG/1.1/DTD/svg11.dtd">
<!-- Creator: CorelDRAW X6 -->
<svg xmlns="http://www.w3.org/2000/svg" xml:space="preserve" width="24in" height="18in" version="1.1" style="shape-rendering:geometricPrecision; text-rendering:geometricPrecision; image-rendering:optimizeQuality; fill-rule:evenodd; clip-rule:evenodd"
viewBox="0 0 24000 18000"
 xmlns:xlink="http://www.w3.org/1999/xlink">
 <defs>
  <style type="text/css">
   <![CDATA[
    .fil0 {fill:#FDE9B5;fill-rule:nonzero}
   ]]>
  </style>
    <clipPath id="id0" style="clip-rule:nonzero">
     <path d="M1924 2872l6766 0 0 7108 -6766 0 0 -7108z"/>
    </clipPath>
 </defs>
 <g id="Layer_x0020_1">
  <metadata id="CorelCorpID_0Corel-Layer"/>
  <g id="_420329232">
   <path class="fil0" d="M3953 3399c35,17 1,23 -6,32 -2,-11 0,-22 6,-32zm80 -132c-166,81 -88,172 -132,183 -105,172 296,-192 132,-183z"/>
   <path class="fil0" d="M4287 3151c-150,-75 -76,-1 -77,44 68,-67 55,47 77,-44z"/>
   <path class="fil0" d="M3347 2578c-14,-14 -45,18 -30,30 10,-5 20,-14 30,-30z"/>
   <path class="fil0" d="M4034 3245c-33,55 123,-74 143,-77 -128,-105 -224,99 -143,77z"/>
   <path class="fil0" d="M3475 2527c115,-101 -73,29 -76,88 227,-110 244,-131 76,-88z"/>
   <path class="fil0" d="M3590 2396c-22,27 -44,25 -40,53 27,-8 39,-29 40,-53z"/>
   <path class="fil0" d="M3473 2598c-13,-22 -27,4 -41,21 13,13 27,-13 41,-21z"/>
   <path class="fil0" d="M4381 3625c44,-49 -5,-5 0,0z"/>
   <path class="fil0" d="M2513 3399c22,-36 30,-64 51,-51 0,-2 1,-4 2,-6 21,-179 -68,67 -52,56z"/>
   <path class="fil0" d="M4361 3967c-5,13 -4,9 -5,13 68,18 12,-9 5,-13z"/>
   <path class="fil0" d="M4381 3625c17,12 28,13 0,0z"/>
   <path class="fil0" d="M4335 3619l11 -18c-17,-17 -32,8 -11,18z"/>
   <path class="fil0" d="M2588 3262c156,-268 -25,-147 -64,26 71,-85 89,-188 64,-26z"/>
   <path class="fil0" d="M4461 4032c-37,12 -51,9 -68,16 59,38 50,-6 68,-16z"/>
   <path class="fil0" d="M3092 2847c8,-23 19,-14 28,-33 -15,-18 -44,23 -28,33z"/>
   <path class="fil0" d="M2595 2928c-17,-11 -51,22 -32,37 10,-15 22,-16 32,-37z"/>
   <path class="fil0" d="M7669 7257c-16,22 -24,34 0,0z"/>
   <path class="fil0" d="M2711 3316c3,17 5,30 -5,90 -2,-11 -59,-5 5,-90zm-147 33c-6,22 -3,40 15,45 60,-68 -12,29 19,36 11,50 145,-58 17,66 265,-167 155,-333 111,-119 15,-167 92,-211 -10,-125 -100,203 53,-154 -109,45 170,-236 -10,-53 -41,46 0,2 0,4 -1,6 0,0 -1,0 -1,-1z"/>
   <path class="fil0" d="M2608 2841c-13,10 -22,24 -28,39 34,24 37,-37 28,-39z"/>
   <path class="fil0" d="M2700 3132c-26,-17 -27,1 -38,23 20,13 32,-6 38,-23z"/>
   <path class="fil0" d="M3066 2843c31,-57 -40,-26 0,0z"/>
   <path class="fil0" d="M3078 2790c6,17 25,16 30,-12 -44,-22 -31,22 -30,12z"/>
   <path class="fil0" d="M2741 3472c-12,8 -17,42 -6,52 11,-18 32,-46 6,-52z"/>
   <path class="fil0" d="M2894 3166c13,-18 -11,-44 -19,-24 -6,15 4,22 19,24z"/>
   <path class="fil0" d="M4436 3449c-69,27 -5,33 -5,69 47,-58 33,-69 5,-69z"/>
   <path class="fil0" d="M4467 4030c-2,0 -4,1 -6,2 2,-1 4,-1 6,-2z"/>
   <path class="fil0" d="M4854 5077c-1,-5 -2,-8 -3,-11 -3,-2 -6,-5 -9,-7 -4,4 -6,15 -7,18 19,0 12,-1 19,0z"/>
   <path class="fil0" d="M8192 6561c-12,7 -32,14 -29,33 17,20 45,-23 29,-33z"/>
   <path class="fil0" d="M4812 5089c5,4 9,9 14,14 17,-19 -1,-17 -14,-14z"/>
   <path class="fil0" d="M8206 6517c24,-7 53,-36 48,-65 -20,22 -49,47 -48,65z"/>
   <path class="fil0" d="M8325 6322c-13,36 -7,24 0,0z"/>
   <path class="fil0" d="M5433 7020c-20,-17 -13,-9 0,0z"/>
   <path class="fil0" d="M5419 6262c0,0 0,0 0,0 1,1 1,1 0,0z"/>
   <path class="fil0" d="M8801 5336c-6,23 -11,41 -11,42 0,-1 3,-13 11,-42z"/>
   <path class="fil0" d="M8415 6656c-11,-21 21,-28 15,-46 -17,7 -41,54 -15,46z"/>
   <path class="fil0" d="M5419 6262c-17,-56 -12,-49 -16,-31 -38,-5 8,26 16,31z"/>
   <path class="fil0" d="M8325 6322c18,123 33,-1 0,0z"/>
   <path class="fil0" d="M4654 4745c-29,20 -18,30 -23,39 77,-6 20,-12 23,-39z"/>
   <path class="fil0" d="M4581 4767c11,-4 16,-18 -7,-22 4,7 -7,20 7,22z"/>
   <path class="fil0" d="M4867 4366c1,-13 20,-13 -4,-26 2,15 -24,14 4,26z"/>
   <path class="fil0" d="M4453 4329c9,-5 4,-29 -2,-40 -5,10 -21,29 2,40z"/>
   <path class="fil0" d="M1228 4926c4,16 4,37 4,60 9,50 18,101 27,151 0,0 0,0 1,1 6,-48 20,-183 -31,-212z"/>
   <path class="fil0" d="M2157 3039c-3,-4 -7,-5 -12,-2 -7,16 -14,33 -22,52 12,-13 25,-18 33,-49z"/>
   <path class="fil0" d="M8121 6632c2,-25 28,-27 19,-47 -4,8 -18,16 -26,25 -2,3 -3,6 -5,9 0,5 3,9 12,14z"/>
   <path class="fil0" d="M1736 3630c-8,7 -5,13 0,0z"/>
   <path class="fil0" d="M4732 4333c1,0 1,1 2,1 -1,-23 -10,-29 -2,-1z"/>
   <path class="fil0" d="M8483 6175c10,-12 36,-44 8,-52 -17,-3 -26,42 -8,52z"/>
   <path class="fil0" d="M4458 4186c63,7 50,16 63,2 -2,-1 -4,-3 -6,-4 -44,-16 -52,-9 -57,2z"/>
   <path class="fil0" d="M7702 8072c-29,-4 3,-16 -3,-20 -66,41 10,34 3,20z"/>
   <path class="fil0" d="M7782 8258c-5,1 -10,3 -17,5 10,-4 15,-5 17,-5 66,-20 12,-29 -14,-10 -49,72 25,14 14,10z"/>
   <path class="fil0" d="M2433 3066c-10,16 -24,10 -31,40 13,17 40,-28 31,-40z"/>
   <path class="fil0" d="M5433 7020c-59,12 9,25 0,0z"/>
   <path class="fil0" d="M8081 7560c-10,9 -82,43 -79,74 20,-5 86,-41 79,-74z"/>
   <path class="fil0" d="M7362 7916c62,-57 -51,12 -56,7 14,61 192,2 56,-7z"/>
   <path class="fil0" d="M7247 8222c46,10 17,-14 22,-21 -58,-2 -31,9 -22,21z"/>
   <path class="fil0" d="M1479 3841c0,-24 21,-18 21,-42 -30,-13 -39,21 -21,42z"/>
   <path class="fil0" d="M1732 3743c3,-32 3,-42 0,-50 -67,37 -24,63 0,50z"/>
   <path class="fil0" d="M1777 4020c17,-24 12,-21 16,-60 -22,-14 -35,58 -16,60z"/>
   <path class="fil0" d="M7960 8220c3,-1 5,-2 8,-2 -1,-1 -4,0 -8,2z"/>
   <path class="fil0" d="M7960 8220c-49,15 -61,16 -77,14 3,66 56,1 77,-14z"/>
   <path class="fil0" d="M7702 8276c43,-16 52,-27 69,-39 15,-70 -74,20 -69,39z"/>
   <path class="fil0" d="M6549 8327c-45,6 -15,13 -15,21 44,1 19,-16 15,-21z"/>
   <path class="fil0" d="M6480 8158c29,-2 33,-7 27,-16 -109,21 16,43 -27,16z"/>
   <path class="fil0" d="M6591 8331c19,-8 37,1 56,-5 15,-69 -76,-37 -56,5z"/>
   <path class="fil0" d="M7587 7820c-11,11 -50,19 -33,34 16,-21 41,-12 33,-34z"/>
   <path class="fil0" d="M6333 8165c43,41 104,-13 112,14 13,-57 -118,-47 -112,-14z"/>
   <path class="fil0" d="M6012 8078c35,10 20,8 36,10 1,-47 -27,-17 -36,-10z"/>
   <path class="fil0" d="M7927 7677c16,-12 38,-25 29,-38 -10,12 -49,25 -29,38z"/>
   <path class="fil0" d="M6355 8106c-6,3 -39,-1 -36,12 7,-1 49,22 36,-12z"/>
   <path class="fil0" d="M6012 8078c-1,0 -1,0 -2,-1 -1,3 0,3 2,1z"/>
   <path class="fil0" d="M6143 8149c-1,15 39,23 39,15 -14,-4 -12,-24 -39,-15z"/>
   <path class="fil0" d="M6060 8062c5,22 35,20 54,28 -7,-20 -22,-32 -54,-28z"/>
   <path class="fil0" d="M1409 3675c13,20 -45,168 24,86 143,-84 -58,-162 -24,-86z"/>
   <path class="fil0" d="M1336 6218c-41,40 -12,59 5,114 64,68 -13,-103 -5,-114z"/>
   <path class="fil0" d="M1858 4129c4,-85 -39,47 0,0z"/>
   <path class="fil0" d="M1229 5892c2,63 43,141 66,207 11,-53 -30,-178 -66,-207z"/>
   <path class="fil0" d="M1194 5795c5,-20 -5,-48 -17,-55 -6,17 2,58 17,55z"/>
   <path class="fil0" d="M1858 4129c9,-26 5,-16 0,0z"/>
   <path class="fil0" d="M1391 3877c12,-53 -11,-59 -38,-61 -20,80 35,11 38,61z"/>
   <path class="fil0" d="M2212 3037c1,-2 2,-3 4,-5 -2,-11 -5,-17 -4,5z"/>
   <path class="fil0" d="M2215 3032c3,13 6,33 6,29 39,-51 9,-45 -6,-29z"/>
   <path class="fil0" d="M2263 2938c-1,-26 -71,23 -49,46 16,-15 34,-18 49,-46z"/>
   <path class="fil0" d="M1947 4076c89,-88 -12,-64 -22,-51 -3,75 7,20 22,51z"/>
   <path class="fil0" d="M2293 2961c-62,59 5,45 -42,69 -17,84 66,-58 42,-69z"/>
   <path class="fil0" d="M1169 4335c0,-36 23,-31 11,-58 -22,-11 -29,57 -11,58z"/>
   <path class="fil0" d="M1277 3671c-29,48 -19,32 -6,53 20,5 7,-43 6,-53z"/>
   <path class="fil0" d="M1277 3671c0,-1 1,-1 1,-1 -1,-1 -1,0 -1,1z"/>
   <path class="fil0" d="M1271 3924c16,11 -13,82 11,81 14,-45 10,-112 -11,-81z"/>
   <path class="fil0" d="M1248 4071c-11,31 -11,53 4,69 4,-30 12,-67 -4,-69z"/>
   <path class="fil0" d="M1350 3575c-54,32 -31,34 -5,46 10,-32 8,-39 5,-46z"/>
   <path class="fil0" d="M1176 4150c9,32 20,21 31,-4 9,-40 -16,28 -31,4z"/>
   <path class="fil0" d="M1216 3850c24,18 20,28 27,-18 -26,-183 -15,11 -27,18z"/>
   <path class="fil0" d="M1359 4049c13,-31 13,42 13,18 9,41 -41,119 -13,-18zm-29 207c123,-279 39,-223 72,-279 -126,-206 -67,247 -72,279z"/>
   <path class="fil0" d="M1163 4773c-4,28 -22,88 8,80 3,-25 13,-76 -8,-80z"/>
   <path class="fil0" d="M1170 4703l-1 46c23,7 24,-57 1,-46z"/>
   <path class="fil0" d="M1377 3705c-14,-52 -15,-67 -19,-83 -43,71 2,99 19,83z"/>
   <path class="fil0" d="M8200 7527c-16,-27 -6,-13 -16,-27 -10,48 -2,36 16,27z"/>
   <path class="fil0" d="M7898 6417c-7,78 20,-12 0,0z"/>
   <path class="fil0" d="M7668 6362c-77,21 -63,78 -102,85 94,6 88,-80 102,-85z"/>
   <path class="fil0" d="M7781 6228c-29,-15 -18,19 -41,20 18,9 43,-6 41,-20z"/>
   <path class="fil0" d="M7898 6417c-26,21 -15,13 0,0z"/>
   <path class="fil0" d="M7550 6534c32,11 21,3 24,-13 -15,-25 -22,3 -24,13z"/>
   <path class="fil0" d="M7705 6321c3,-11 25,-23 15,-33 -15,-2 -35,17 -15,33z"/>
   <path class="fil0" d="M7965 6429c-34,42 -44,42 -55,36 41,104 109,-32 55,-36z"/>
   <path class="fil0" d="M7773 6988c-59,9 -31,-30 -67,11 -83,-7 72,20 67,-11z"/>
   <path class="fil0" d="M7537 7111c-15,22 -42,13 -32,49 17,-1 33,-32 32,-49z"/>
   <path class="fil0" d="M7799 6935c-26,-46 -38,18 -56,-12 -9,87 47,11 56,12z"/>
   <path class="fil0" d="M7562 7093c6,53 34,-17 0,0z"/>
   <path class="fil0" d="M7562 7093c-10,24 -6,14 0,0z"/>
   <path class="fil0" d="M7619 6543c1,-2 1,-4 2,-6 -1,1 -2,3 -2,6z"/>
   <path class="fil0" d="M7619 6545c0,-1 0,-1 0,-2 -3,12 -4,19 0,2z"/>
   <path class="fil0" d="M7770 6000c-88,44 -13,23 0,0z"/>
   <path class="fil0" d="M7702 6063c5,-11 10,-20 19,-21 -27,-23 -36,9 -19,21z"/>
   <path class="fil0" d="M6450 7566c-9,-17 19,-12 5,-33 -19,-3 -20,31 -5,33z"/>
   <path class="fil0" d="M7722 5760c-15,0 -28,8 -35,22 18,15 45,2 35,-22z"/>
   <path class="fil0" d="M7812 5646c-1,-11 4,-24 -10,-31 -6,8 -17,24 10,31z"/>
   <path class="fil0" d="M7799 6935c0,1 1,1 1,2 0,-1 0,-2 -1,-2z"/>
   <path class="fil0" d="M7770 6000c-22,-24 -37,-21 0,0z"/>
   <path class="fil0" d="M7619 6545c0,13 5,31 2,-8 -1,3 -1,6 -2,8z"/>
   <path class="fil0" d="M7669 6537c-62,28 24,36 7,20 -28,-15 -4,-10 -7,-20z"/>
   <path class="fil0" d="M7641 6438c-8,20 -37,15 -22,35 7,0 41,-23 22,-35z"/>
   <path class="fil0" d="M6429 7558c-34,38 0,7 4,0 -69,-45 -129,52 -4,0z"/>
   <path class="fil0" d="M5919 7996c0,5 0,11 0,17 1,0 3,0 5,0 4,-7 0,-12 -5,-17z"/>
   <path class="fil0" d="M1999 3363c-10,-7 8,-39 -14,-35 -18,28 -1,60 14,35z"/>
   <path class="fil0" d="M6004 8035c-3,-1 -6,-2 -8,-3 -2,2 1,3 8,3z"/>
   <path class="fil0" d="M7973 7926c-16,8 -18,15 -14,19 6,-5 13,-9 19,-14 -2,-1 -4,-3 -5,-6z"/>
   <path class="fil0" d="M5180 5231c-11,-3 4,-16 -29,-4 8,3 9,12 29,4z"/>
   <path class="fil0" d="M5160 5066c-5,-5 -9,-10 -28,-7 6,5 12,9 28,7z"/>
   <path class="fil0" d="M8258 5599c0,0 0,0 0,1 0,0 0,0 0,0 0,0 0,-1 0,-1z"/>
   <path class="fil0" d="M4734 4339c0,-1 0,-1 0,-2 0,0 0,0 -1,0 0,1 0,1 1,2z"/>
   <path class="fil0" d="M5143 5034c-8,2 -16,5 -24,8 2,1 3,2 5,3 19,-8 20,-7 19,-11z"/>
   <path class="fil0" d="M5411 5342c-4,-5 -25,6 -36,14 3,6 23,-8 36,-14z"/>
   <path class="fil0" d="M1755 3532c11,-41 5,-27 0,0z"/>
   <path class="fil0" d="M9010 4859c0,0 0,0 0,0 0,0 0,0 0,0 0,0 0,0 0,0z"/>
   <path class="fil0" d="M3952 6567c11,21 39,-1 27,-16 -9,12 -17,0 -27,16z"/>
   <path class="fil0" d="M7508 6340c2,-3 5,-5 7,-8 2,-8 -2,-8 -7,8z"/>
   <path class="fil0" d="M7763 7014c-123,44 23,29 0,0z"/>
   <path class="fil0" d="M7502 6347c1,2 2,4 3,6 1,-5 2,-9 3,-12 -2,2 -4,4 -5,6z"/>
   <path class="fil0" d="M7763 7014c-43,7 -23,5 0,0z"/>
   <path class="fil0" d="M1871 7426l0 -12c-18,-6 -19,-6 0,12z"/>
   <path class="fil0" d="M1895 7449c24,24 61,62 110,118 32,-7 65,-13 97,-20 -32,-42 -62,-83 -90,-125 -37,8 -72,16 -117,26z"/>
   <path class="fil0" d="M7794 6977c2,-28 5,-13 2,-28 -52,26 -11,31 -2,28z"/>
   <path class="fil0" d="M7501 6348c0,0 1,-1 1,-1 -18,-41 -7,-11 -1,1z"/>
   <path class="fil0" d="M8941 5670c0,0 0,0 0,0 2,2 4,4 6,7 -2,-3 -4,-5 -6,-7z"/>
   <path class="fil0" d="M7412 6987c-6,-2 -8,3 0,0z"/>
   <path class="fil0" d="M7598 6035c2,5 21,-23 3,-29 -1,10 -23,21 -3,29z"/>
   <path class="fil0" d="M6227 7074c-39,-28 -22,-10 -29,9 24,-3 26,-9 29,-9z"/>
   <path class="fil0" d="M7004 6458c-7,-14 -31,-20 -27,-3 9,-6 18,19 27,3z"/>
   <path class="fil0" d="M7153 7264c-19,12 -42,13 -61,26 14,15 66,-2 61,-26z"/>
   <path class="fil0" d="M6227 7074c2,1 4,3 6,4 -4,-3 -5,-4 -6,-4z"/>
   <path class="fil0" d="M6238 7078l3 24c20,1 15,-33 -3,-24z"/>
   <path class="fil0" d="M7035 7093c15,-8 25,-18 28,-30 -16,-5 -24,18 -28,30z"/>
   <path class="fil0" d="M7135 6992c-9,-2 -20,4 -31,11 8,19 40,6 31,-11z"/>
   <path class="fil0" d="M7218 7141c29,-5 -3,-44 -14,-35 -4,14 19,16 14,35z"/>
   <path class="fil0" d="M7242 6714c-19,8 -12,8 0,0z"/>
   <path class="fil0" d="M7181 7228c8,-8 35,-11 19,-25 -17,-5 -26,11 -19,25z"/>
   <path class="fil0" d="M7184 6989c-12,-1 -46,0 -29,26 12,-15 40,-24 29,-26z"/>
   <path class="fil0" d="M5955 6646c-14,-5 -4,3 -4,4 1,-2 3,-3 4,-4z"/>
   <path class="fil0" d="M5796 7704c37,-46 -9,2 0,0z"/>
   <path class="fil0" d="M5810 7705c4,0 6,0 8,0 -2,0 -4,0 -8,0z"/>
   <path class="fil0" d="M5789 7698c1,-42 -31,-17 -43,-45 -8,34 25,33 43,45z"/>
   <path class="fil0" d="M5845 6648c3,-23 -8,-29 -21,-32 -6,27 11,25 21,32z"/>
   <path class="fil0" d="M5694 7662c-17,-3 -17,11 -21,23 21,8 22,-7 21,-23z"/>
   <path class="fil0" d="M5955 6646c3,1 6,2 10,5 -1,-5 0,-15 -10,-5z"/>
   <path class="fil0" d="M8479 7853c-5,10 -8,16 -10,19 0,0 1,0 1,0 2,-4 5,-10 9,-19z"/>
   <path class="fil0" d="M6379 7110c2,-7 -2,-37 15,4 10,-6 -34,43 -15,-4zm72 -22c1,6 2,11 5,15 17,-1 55,-22 74,-33 18,-11 13,-7 0,0 -4,2 -8,5 -13,8 16,18 -43,51 -60,25 -8,1 -11,-3 -5,-15zm442 0c328,-152 64,-112 -108,-31 -249,62 285,-139 228,-129 -370,11 -734,173 -852,210 328,95 773,-126 733,-50z"/>
   <path class="fil0" d="M5889 6587c-11,5 -9,-8 -19,-6 -5,16 20,30 19,6z"/>
   <path class="fil0" d="M7242 6714c21,50 11,6 0,0z"/>
   <path class="fil0" d="M5969 6652c-2,-1 -3,-1 -4,-2 1,2 1,4 4,2z"/>
   <path class="fil0" d="M7416 6438c-47,-37 -45,-10 -68,6 -71,62 45,-7 68,-6z"/>
   <path class="fil0" d="M7312 7095c-45,30 -28,22 0,0z"/>
   <path class="fil0" d="M7355 7170c-126,22 -114,45 -127,80 287,-136 95,-133 127,-80z"/>
   <path class="fil0" d="M7264 7105l-10 -15c-37,5 -18,35 10,15z"/>
   <path class="fil0" d="M7312 7095c-153,120 50,8 0,0z"/>
   <path class="fil0" d="M7295 7244c-29,16 -30,29 -57,35 23,31 55,-12 57,-35z"/>
   <path class="fil0" d="M7136 7314c-55,64 51,-15 67,28 -28,-61 -38,-32 -67,-28z"/>
   <path class="fil0" d="M7008 7105c20,-15 28,0 20,-15 -57,-48 -35,11 -20,15z"/>
   <path class="fil0" d="M7188 7301c20,-19 31,-3 46,-5 -8,-26 -62,-30 -46,5z"/>
   <path class="fil0" d="M6907 7130c10,-9 43,-8 29,-28 -13,2 -43,3 -29,28z"/>
   <path class="fil0" d="M7404 7044c17,23 -16,17 -13,32 -23,1 2,-38 13,-32zm-44 39c6,52 34,71 89,-9 -13,12 -59,-103 -89,9z"/>
   <path class="fil0" d="M7001 7062c9,30 40,13 30,-2 -13,12 -16,-16 -30,2z"/>
   <path class="fil0" d="M7310 6650c-41,19 -50,25 -57,31 7,122 73,-22 57,-31z"/>
   <path class="fil0" d="M7361 6947c3,-9 0,-20 -10,-31 -30,7 -12,50 10,31z"/>
   <path class="fil0" d="M7416 6438c1,1 2,2 4,3 0,-2 -1,-3 -4,-3z"/>
   <path class="fil0" d="M6805 7155c9,-7 38,-6 25,-24 -13,2 -37,1 -25,24z"/>
   <path class="fil0" d="M7495 6065c15,1 37,-14 25,-29 -13,-2 -53,8 -25,29z"/>
   <path class="fil0" d="M7324 6496c-8,-16 -41,-1 -24,15 11,-19 8,-9 24,-15z"/>
   <path class="fil0" d="M7407 6382c-7,8 -14,16 -22,24 29,31 59,1 22,-24z"/>
   <path class="fil0" d="M7275 7076c-4,1 -8,1 -13,2 2,5 6,3 13,-2z"/>
   <path class="fil0" d="M7578 6226c-19,30 -48,14 -47,33 -72,101 101,-36 47,-33z"/>
   <path class="fil0" d="M7275 7076c56,-9 56,-28 84,-15 69,-213 -44,-18 -84,15z"/>
   <path class="fil0" d="M7352 6579c6,2 26,-16 13,-29 -11,9 -16,19 -13,29z"/>
   <path class="fil0" d="M5646 6581c-3,-8 -22,-17 -22,9 10,2 17,-1 22,-9z"/>
   <path class="fil0" d="M7663 7023c-30,31 -80,23 -74,64 21,-9 79,-33 74,-64z"/>
   <path class="fil0" d="M6990 8288c10,-3 21,-6 31,-10 -2,-24 -45,-10 -31,10z"/>
   <path class="fil0" d="M7558 8312c0,0 0,0 0,0 1,-1 2,-2 3,-3 -1,1 -2,1 -3,2z"/>
   <path class="fil0" d="M7363 8119c-6,0 -10,0 -13,0 -2,0 -3,1 -4,1 1,1 8,1 17,-2z"/>
   <path class="fil0" d="M7304 7937c-34,21 -25,13 -16,21 -43,74 46,-5 16,-21z"/>
   <path class="fil0" d="M6957 8292c-20,6 -47,11 -42,26 15,-8 57,-7 42,-26z"/>
   <path class="fil0" d="M6990 8359c-40,20 -66,14 -83,38 37,-18 86,-4 83,-38l0 0z"/>
   <path class="fil0" d="M6936 8222c-5,2 3,-2 31,-17 57,24 -147,84 -31,17zm53 137c37,-6 77,-15 104,-20 -146,2 97,-60 126,-90 -389,19 23,6 -24,-130 -104,4 -140,145 -232,62 -65,18 -117,47 -158,73 3,2 7,3 11,3 -4,9 -13,8 -23,4 -69,45 -100,73 -99,2 -127,129 352,-35 345,5 -211,106 -143,105 -52,90 0,0 0,0 0,0 0,0 0,0 0,0z"/>
   <path class="fil0" d="M7946 7128c16,3 27,6 0,0z"/>
   <path class="fil0" d="M7564 8037c4,-1 9,-4 16,-8 -7,2 -12,4 -16,6 0,1 0,1 0,2z"/>
   <path class="fil0" d="M7722 7332c16,-3 14,-15 36,-20 -18,-22 -42,-1 -36,20z"/>
   <path class="fil0" d="M7968 7107c-7,6 -15,11 -22,17 0,1 0,2 1,3 29,-17 29,-22 21,-20z"/>
   <path class="fil0" d="M8143 7362c-20,19 -29,30 0,0z"/>
   <path class="fil0" d="M7396 8799c23,-9 23,16 46,8 21,-22 -37,-32 -46,-8z"/>
   <path class="fil0" d="M8069 8445c22,27 43,-47 45,-60 -14,9 -67,32 -45,60z"/>
   <path class="fil0" d="M7844 8520c59,17 25,-31 0,0z"/>
   <path class="fil0" d="M6126 7720c0,0 0,0 0,0 0,0 1,0 1,0 0,0 -1,0 -1,0z"/>
   <path class="fil0" d="M8027 8441c-111,60 -106,33 -124,74 -64,62 194,-59 124,-74z"/>
   <path class="fil0" d="M8285 8321c-7,4 -4,3 6,7 -7,8 -11,14 -14,18 12,-8 23,-16 36,-24 4,-5 6,-9 6,-12 -11,4 -23,7 -34,11z"/>
   <path class="fil0" d="M6864 9189c0,0 0,0 -1,0 2,1 4,2 6,4 -2,-1 -4,-2 -5,-3z"/>
   <path class="fil0" d="M6701 6502l0 0c0,0 0,0 0,0 0,0 0,0 0,0z"/>
   <path class="fil0" d="M7081 8432c58,-1 33,11 89,14 -6,-41 -44,-32 -89,-14z"/>
   <path class="fil0" d="M6407 7949c0,37 62,16 55,-10 -35,14 -19,15 -55,10z"/>
   <path class="fil0" d="M7844 8520c-18,24 -11,21 0,0z"/>
   <path class="fil0" d="M7554 8713c-12,19 -21,29 0,0 -158,105 75,27 0,0z"/>
   <path class="fil0" d="M7799 7277c8,-21 50,-41 44,-62 -25,29 -67,31 -44,62z"/>
   <path class="fil0" d="M6825 8057c-43,13 -26,20 0,0z"/>
   <path class="fil0" d="M6881 8475c-82,7 -53,1 -83,28 -63,43 100,-22 83,-28z"/>
   <path class="fil0" d="M6742 8252c-31,8 -20,5 -31,8 55,45 21,10 31,-8z"/>
   <path class="fil0" d="M6768 8125c-1,-7 10,-9 20,-12 -7,-36 -48,7 -20,12z"/>
   <path class="fil0" d="M6722 8503c10,33 58,-7 74,-18 -36,2 -36,7 -74,18z"/>
   <path class="fil0" d="M7217 8012c-28,-8 59,-9 31,-35 -93,7 -39,49 -31,35z"/>
   <path class="fil0" d="M6773 8244c4,5 13,13 23,17 4,-2 7,-5 11,-7 -10,-5 -17,-14 -34,-10z"/>
   <path class="fil0" d="M6936 8222c4,-2 16,-8 31,-17 -12,6 -22,12 -31,17z"/>
   <path class="fil0" d="M7094 8339c9,0 19,0 30,-1 5,-5 -8,-3 -30,1z"/>
   <path class="fil0" d="M7129 8008c-62,10 -41,9 0,0z"/>
   <path class="fil0" d="M6825 8057c-18,70 12,-8 0,0z"/>
   <path class="fil0" d="M7129 8008c-189,73 28,24 0,0z"/>
   <path class="fil0" d="M7219 7960c-34,-1 -37,8 -37,19 28,-21 18,9 37,-19z"/>
   <path class="fil0" d="M6973 8047c-80,-3 -116,18 -149,55 73,-19 138,-1 149,-55z"/>
   <path class="fil0" d="M7115 8054c-30,11 -92,2 -101,37 24,-29 79,-7 101,-37z"/>
   <path class="fil0" d="M5612 1877c-14,-1 -55,-6 -58,6 14,0 55,6 58,-6z"/>
   <path class="fil0" d="M5884 1880c-4,19 0,13 -4,19 81,11 3,-10 4,-19z"/>
   <path class="fil0" d="M6045 1907c-25,0 -63,-20 -79,-5 20,5 58,23 79,5z"/>
   <path class="fil0" d="M6095 1910c-19,6 -15,-11 -29,-11 -24,19 27,37 29,11z"/>
   <path class="fil0" d="M6259 1936c-36,-3 -119,-41 -149,-14 49,0 100,30 149,14z"/>
   <path class="fil0" d="M7172 1521c-29,-4 -75,-29 -84,-9 34,-6 64,29 84,9z"/>
   <path class="fil0" d="M7164 1633c-49,-12 -54,-39 -87,-22 17,2 61,29 87,22z"/>
   <path class="fil0" d="M7326 1560c-30,-6 -114,-52 -132,-26 49,12 98,31 132,26z"/>
   <path class="fil0" d="M7499 1788c-40,-7 -118,-68 -164,-72 54,17 116,102 164,72z"/>
   <path class="fil0" d="M6730 3778c5,-12 -2,-32 -10,-23 6,6 -4,23 10,23z"/>
   <path class="fil0" d="M6731 3810c13,53 1,-15 3,-28 -35,43 -13,28 -3,28z"/>
   <path class="fil0" d="M6734 3782c1,-1 1,-1 2,-2 -1,-1 -1,0 -2,2z"/>
   <path class="fil0" d="M7892 1742c-5,-21 -73,-45 -70,-33 31,17 47,32 70,33z"/>
   <path class="fil0" d="M8063 1969c118,103 102,78 117,93 90,-5 -106,-97 -117,-93z"/>
   <path class="fil0" d="M7745 2680c-12,18 9,29 11,44 7,-16 3,-31 -11,-44z"/>
   <path class="fil0" d="M8392 2199c-21,15 -16,3 -21,15 51,63 13,-9 21,-15z"/>
   <path class="fil0" d="M8490 2292c-29,-20 -65,-65 -82,-43 22,14 49,62 82,43z"/>
   <path class="fil0" d="M8044 2998c-35,-28 -57,-46 -80,-45 34,16 48,82 80,45z"/>
   <path class="fil0" d="M7934 3161c-20,-8 -16,-38 -37,-31 1,9 24,38 37,31z"/>
   <path class="fil0" d="M8884 2497c30,-9 -18,-49 -27,-35 16,13 23,24 27,35z"/>
   <path class="fil0" d="M8878 2699c-2,-19 -29,-37 -44,-39 14,10 32,46 44,39z"/>
   <path class="fil0" d="M7254 4364c47,-29 -75,-167 -85,-184 39,164 81,140 85,184z"/>
   <path class="fil0" d="M7169 4180c0,-1 0,-1 0,-2 -1,0 0,0 0,2z"/>
   <path class="fil0" d="M8293 3323c-3,42 22,28 7,13 80,10 -23,-24 -7,-13z"/>
   <path class="fil0" d="M9077 2740c59,56 -12,-77 -29,-50 48,24 30,26 29,50z"/>
   <path class="fil0" d="M9363 3185c43,139 24,118 78,242 -71,-394 -236,-478 -281,-616 -117,-118 140,251 158,282 8,132 36,205 45,92z"/>
   <path class="fil0" d="M8621 4039c39,-173 -126,-390 -157,-458 -26,111 157,286 157,458z"/>
   <path class="fil0" d="M7286 4368c-6,-3 -10,-9 -19,-7 -10,12 -3,17 19,7z"/>
   <path class="fil0" d="M8452 3697c-16,-25 -18,-12 -29,-7 27,44 20,24 29,7z"/>
   <path class="fil0" d="M8528 3846c-15,-19 -8,-30 -19,-47 -27,7 3,55 19,47z"/>
   <path class="fil0" d="M8642 4043c9,23 3,39 -11,53 28,13 33,-58 11,-53z"/>
   <path class="fil0" d="M8837 4032c-13,-22 4,-55 -21,-65 9,20 0,56 21,65z"/>
   <path class="fil0" d="M7446 4550c32,-6 1,-27 -6,-12 18,-4 -2,8 6,12z"/>
   <path class="fil0" d="M10084 3398c57,61 2,-44 0,0z"/>
   <path class="fil0" d="M10084 3398c7,37 6,22 0,0z"/>
   <path class="fil0" d="M8733 4138c-5,-18 -13,-30 -25,-32 8,11 7,46 25,32z"/>
   <path class="fil0" d="M8717 4361c32,-19 -3,-44 2,-74 -43,10 8,43 -2,74z"/>
   <path class="fil0" d="M8545 4405c5,-7 2,-40 -12,-40 -3,6 -1,40 12,40z"/>
   <path class="fil0" d="M8658 4423c-4,9 -4,18 0,0z"/>
   <path class="fil0" d="M8658 4423c-2,12 23,45 0,0z"/>
   <path class="fil0" d="M8739 4544c12,-50 34,-79 12,-101 -14,-122 -29,99 -12,101z"/>
   <path class="fil0" d="M8879 4499c-5,-20 -12,-38 -32,-33 18,17 5,34 32,33z"/>
   <path class="fil0" d="M8770 4544c-7,-16 9,-43 -11,-50 -2,19 -14,42 11,50z"/>
   <path class="fil0" d="M8571 4606c-8,11 -14,34 12,28 -5,-8 0,-31 -12,-28z"/>
   <path class="fil0" d="M7690 4808c-6,-10 1,-31 -13,-33 7,13 -14,31 13,33z"/>
   <path class="fil0" d="M8715 4607c-7,11 -2,44 19,34 -7,-10 -8,-30 -19,-34z"/>
   <path class="fil0" d="M7679 4813c12,13 -15,9 -8,20 21,15 37,-24 8,-20z"/>
   <path class="fil0" d="M7680 4855c-21,65 4,94 3,113 16,-48 25,-110 -3,-113z"/>
   <path class="fil0" d="M8608 4744c-2,13 -12,19 -6,37 16,1 19,-34 6,-37z"/>
   <path class="fil0" d="M9366 4684c-13,-28 -19,-37 -25,-42 -15,92 30,61 25,42z"/>
   <path class="fil0" d="M8606 4822c1,-12 23,-26 -4,-35 -1,10 -5,27 4,35z"/>
   <path class="fil0" d="M7372 4923c-7,18 -21,54 3,73 -13,-27 18,-61 -3,-73z"/>
   <path class="fil0" d="M8882 4822c0,-1 1,-1 1,-2 -1,1 -1,2 -1,2z"/>
   <path class="fil0" d="M8882 4822c-18,35 1,20 13,19 37,-40 -15,-10 -13,-19z"/>
   <path class="fil0" d="M8638 4878c-6,21 -2,35 21,22 3,-20 -11,-18 -21,-22z"/>
   <path class="fil0" d="M8881 4860c-9,22 -1,19 4,23 57,12 13,-34 -4,-23z"/>
   <path class="fil0" d="M9010 4860c0,0 0,0 0,0 -7,20 -9,35 0,0z"/>
   <path class="fil0" d="M9010 4860c0,0 0,0 0,0 -1,-1 -1,-1 0,0z"/>
   <path class="fil0" d="M9010 4859c0,0 0,0 0,0 5,5 37,33 0,0z"/>
   <path class="fil0" d="M9027 5010c-31,79 10,5 0,0z"/>
   <path class="fil0" d="M9027 5010c-30,1 -42,16 0,0z"/>
   <path class="fil0" d="M8943 5048c12,-8 28,-11 29,-28 -20,-1 -28,10 -29,28z"/>
   <path class="fil0" d="M8019 5059c-17,-1 -17,11 -17,22 19,3 19,-9 17,-22z"/>
   <path class="fil0" d="M8973 5047c-6,68 1,46 0,0z"/>
   <path class="fil0" d="M8973 5047c38,97 8,-13 0,0z"/>
   <path class="fil0" d="M8790 5131c3,-21 33,-45 -1,-51 9,22 -17,41 1,51z"/>
   <path class="fil0" d="M7387 5087c13,-6 0,-5 0,-12 -2,-26 -18,8 0,12z"/>
   <path class="fil0" d="M8724 5312c-17,57 24,12 18,1 -18,-1 -13,-2 -18,-1z"/>
   <path class="fil0" d="M8801 5336c-7,29 -11,41 -11,42 0,-1 5,-18 11,-42 -73,225 48,30 0,0z"/>
   <path class="fil0" d="M8741 5536c24,-4 27,-38 39,-60 -28,-1 -29,35 -39,60z"/>
   <path class="fil0" d="M9915 5633c-9,50 -8,52 -20,90 23,12 29,-114 20,-90z"/>
   <path class="fil0" d="M8596 5557c10,128 20,-9 0,0z"/>
   <path class="fil0" d="M8596 5557c-11,36 -6,23 0,0z"/>
   <path class="fil0" d="M8941 5670c2,2 4,5 6,7 1,-3 -2,-5 -6,-7z"/>
   <path class="fil0" d="M8947 5677c-2,-3 -4,-5 -6,-7 -16,-7 -54,-4 6,7z"/>
   <path class="fil0" d="M8941 5669c0,0 0,0 0,0 -7,-9 -11,-13 0,0z"/>
   <path class="fil0" d="M8213 5578c3,-8 28,-38 2,-42 2,13 -15,35 -2,42z"/>
   <path class="fil0" d="M8645 5628c-24,32 -21,42 -17,54 57,-7 16,-57 17,-54z"/>
   <path class="fil0" d="M9766 5826c-9,35 -23,59 -32,94 18,-3 50,-94 32,-94z"/>
   <path class="fil0" d="M8258 5599c0,0 0,1 0,1 2,16 13,91 0,-1z"/>
   <path class="fil0" d="M8258 5600c0,0 0,0 0,-1 -1,-3 -1,-2 0,1z"/>
   <path class="fil0" d="M8258 5600c0,0 0,0 0,0 -7,20 -7,29 0,0z"/>
   <path class="fil0" d="M8584 5736c6,-14 22,-37 14,-60 -4,8 -24,38 -14,60z"/>
   <path class="fil0" d="M8609 5761c33,6 51,-61 28,-64 -19,65 -4,46 -28,64z"/>
   <path class="fil0" d="M8671 5789c10,-31 34,-52 19,-81 -7,21 -30,59 -19,81z"/>
   <path class="fil0" d="M9616 5970c-6,-34 -9,-26 -24,-31 4,41 12,41 24,31z"/>
   <path class="fil0" d="M9652 6030c-19,23 -17,41 0,0z"/>
   <path class="fil0" d="M9652 6030c42,80 6,-39 0,0z"/>
   <path class="fil0" d="M7980 5634c-1,15 -29,-7 -28,11 11,5 49,-2 28,-11z"/>
   <path class="fil0" d="M8874 5909c13,-29 -26,-21 -40,-17 8,21 32,-2 40,17z"/>
   <path class="fil0" d="M8520 5833c3,71 19,44 18,25 -37,9 4,-34 -18,-25z"/>
   <path class="fil0" d="M10435 6459c29,-71 51,-137 68,-173 -30,17 -60,136 -68,173z"/>
   <path class="fil0" d="M7095 5385c33,12 10,-7 8,-9 -33,0 -12,4 -8,9z"/>
   <path class="fil0" d="M8812 6050c-78,62 -7,16 5,8 41,-120 -58,27 -5,-8z"/>
   <path class="fil0" d="M8165 5804c0,0 0,0 1,0 1,0 0,0 -1,0z"/>
   <path class="fil0" d="M8165 5804c-42,7 -35,-6 -40,3 -4,20 34,0 40,-3z"/>
   <path class="fil0" d="M8775 6024c-8,34 -26,25 -28,24 1,0 2,2 5,4 19,23 31,-7 23,-28z"/>
   <path class="fil0" d="M9568 6298c-5,24 -37,53 -26,74 10,-25 46,-63 26,-74z"/>
   <path class="fil0" d="M8768 6118c0,-1 1,-2 1,-3 -2,0 -2,1 -1,3z"/>
   <path class="fil0" d="M8768 6118c-15,35 -15,46 -15,57 48,-8 18,-47 15,-57z"/>
   <path class="fil0" d="M7426 5631c-30,10 25,16 15,11 -15,-11 -10,-8 -15,-11z"/>
   <path class="fil0" d="M9288 6486c12,-7 19,-35 31,-42 -18,-10 -49,30 -31,42z"/>
   <path class="fil0" d="M8278 6049c-13,1 -8,4 0,0z"/>
   <path class="fil0" d="M8278 6049c-44,68 27,3 0,0z"/>
   <path class="fil0" d="M8680 6281c-64,47 78,-11 39,-38 -44,30 -37,25 -39,38z"/>
   <path class="fil0" d="M7657 5806c-15,0 -23,15 -15,27 6,-8 11,-16 17,-24 -1,-1 -1,-2 -2,-3z"/>
   <path class="fil0" d="M7830 5899c-13,8 -15,19 0,0z"/>
   <path class="fil0" d="M7830 5899c14,35 8,-8 0,0z"/>
   <path class="fil0" d="M8619 6291c-29,46 -27,56 -14,60 30,-11 62,-27 14,-60z"/>
   <path class="fil0" d="M8521 6269c-29,46 -43,12 -28,38 38,32 32,-39 28,-38z"/>
   <path class="fil0" d="M7842 5963c-24,5 -14,5 0,0z"/>
   <path class="fil0" d="M7842 5963c-32,51 28,-16 0,0z"/>
   <path class="fil0" d="M7921 5997c-42,46 -5,19 6,14 -6,-14 -5,-9 -6,-14z"/>
   <path class="fil0" d="M8429 6305c-4,7 -9,14 -13,21 -10,43 38,-26 13,-21z"/>
   <path class="fil0" d="M7997 6124c-31,-22 -8,-27 -22,-30 -8,66 0,47 22,30z"/>
   <path class="fil0" d="M9121 6987c2,1 5,1 8,2 1,0 1,-1 2,-1 87,-167 80,-83 115,-205 18,-78 -129,171 -125,204z"/>
   <path class="fil0" d="M8564 6467c9,-26 19,-17 9,-26 -58,4 -17,23 -9,26z"/>
   <path class="fil0" d="M8732 6600c-21,23 -13,15 0,0z"/>
   <path class="fil0" d="M8732 6600c-26,78 27,-4 0,0z"/>
   <path class="fil0" d="M9033 6852c11,-27 36,-59 18,-83 8,21 -33,66 -18,83z"/>
   <path class="fil0" d="M8821 6680c-45,23 -30,19 -23,40 23,-40 33,-25 23,-40z"/>
   <path class="fil0" d="M8450 6490c-12,-16 -40,-1 -29,14 9,-10 23,7 29,-14z"/>
   <path class="fil0" d="M9283 6920c-21,23 -12,15 0,0z"/>
   <path class="fil0" d="M9283 6920c-38,88 19,-6 0,0z"/>
   <path class="fil0" d="M9233 6934c-11,-28 -16,-35 -21,-39 -30,68 5,53 21,39z"/>
   <path class="fil0" d="M7710 6085c-1,2 -1,3 0,0z"/>
   <path class="fil0" d="M7712 6082c-1,1 -1,3 -2,3 0,-1 1,-2 2,-3z"/>
   <path class="fil0" d="M7715 6076c-1,0 8,8 14,12 0,0 0,0 0,0 -3,-2 -7,-6 -14,-12z"/>
   <path class="fil0" d="M8524 6570c-6,63 5,-7 0,0z"/>
   <path class="fil0" d="M8524 6570c-20,3 -30,15 0,0z"/>
   <path class="fil0" d="M8755 6696c-24,9 -14,7 0,0z"/>
   <path class="fil0" d="M8755 6696c-43,58 22,5 0,0z"/>
   <path class="fil0" d="M9014 6860c-43,46 -54,67 -69,91 -40,123 75,-73 69,-91z"/>
   <path class="fil0" d="M8482 6593c-11,16 -24,19 -35,35 14,11 42,-22 35,-35z"/>
   <path class="fil0" d="M8347 6522c-15,20 -22,21 -10,40 5,-13 32,-34 10,-40z"/>
   <path class="fil0" d="M8801 6835c15,3 51,-21 34,-34 -11,12 -25,12 -34,34z"/>
   <path class="fil0" d="M9077 6969c-21,18 -33,41 -20,57 14,-22 22,-42 20,-57z"/>
   <path class="fil0" d="M7180 5810c-7,8 -3,18 11,29 2,-9 5,-18 -11,-29z"/>
   <path class="fil0" d="M8261 6668c14,18 39,-33 34,-40 -21,11 -13,24 -34,40z"/>
   <path class="fil0" d="M9021 7093c-22,23 7,44 22,23 -19,-3 -7,-18 -22,-23z"/>
   <path class="fil0" d="M9712 7635c19,20 54,-31 46,-46 -16,36 -30,18 -46,46z"/>
   <path class="fil0" d="M8851 7107c-12,28 -30,53 -43,80 15,-20 66,-50 43,-80z"/>
   <path class="fil0" d="M8976 7267c10,-19 11,-35 15,-52 -15,21 -37,44 -15,52z"/>
   <path class="fil0" d="M8069 6610c-13,18 -30,12 -44,20 17,22 49,2 44,-20z"/>
   <path class="fil0" d="M8655 7064c-17,-8 -57,31 -56,56 15,-27 57,-30 56,-56z"/>
   <path class="fil0" d="M8748 7226l39 -53c-20,-11 -61,39 -39,53z"/>
   <path class="fil0" d="M8884 7238c-12,48 -22,54 -35,58 -14,106 59,-57 35,-58z"/>
   <path class="fil0" d="M9617 7750c-17,29 -33,37 -49,56 9,26 73,-49 49,-56z"/>
   <path class="fil0" d="M8924 7348c-28,42 -39,51 -53,58 18,65 57,-59 53,-58z"/>
   <path class="fil0" d="M8812 7343c-58,21 -7,49 -43,63 48,-12 77,-66 43,-63z"/>
   <path class="fil0" d="M7833 6599c-14,67 20,13 -2,13 2,-13 5,-8 2,-13z"/>
   <path class="fil0" d="M7866 6702c14,10 47,-13 44,-24 -14,13 -31,6 -44,24z"/>
   <path class="fil0" d="M8220 6927c-19,16 -10,35 -30,37 10,19 51,-32 30,-37z"/>
   <path class="fil0" d="M7296 6165c-5,10 -26,19 -11,34 7,-9 13,-22 11,-34z"/>
   <path class="fil0" d="M8472 7199c-4,-20 -4,-30 -3,-35 -41,59 -19,53 3,35z"/>
   <path class="fil0" d="M8469 7164c1,-1 2,-3 3,-4 -1,1 -2,2 -3,4z"/>
   <path class="fil0" d="M8768 7416c-58,31 -28,38 -6,27 -29,73 45,-49 6,-27z"/>
   <path class="fil0" d="M7840 6695c-15,14 -36,0 -49,19 17,16 61,13 49,-19z"/>
   <path class="fil0" d="M7915 6841c14,-9 46,-40 27,-59 -6,19 -23,39 -27,59z"/>
   <path class="fil0" d="M7945 6852c75,-9 43,-22 38,-33 -46,17 -38,23 -38,33z"/>
   <path class="fil0" d="M7736 6619c-13,1 -31,22 -19,36 4,-2 8,-5 12,-7 4,-10 6,-20 6,-29z"/>
   <path class="fil0" d="M7467 6408c10,0 24,8 25,17 22,-19 -34,-36 -25,-17z"/>
   <path class="fil0" d="M8691 7442c-13,46 49,-6 0,0z"/>
   <path class="fil0" d="M8691 7442c-15,11 -8,9 0,0z"/>
   <path class="fil0" d="M7978 6863c-7,13 -42,8 -20,33 5,-11 30,-23 20,-33z"/>
   <path class="fil0" d="M8724 7534c17,20 54,3 42,-11 -14,13 -27,3 -42,11z"/>
   <path class="fil0" d="M7809 6777c8,14 36,-1 29,-14 -16,1 -22,-8 -29,14z"/>
   <path class="fil0" d="M8653 7466c-23,22 -14,14 0,0z"/>
   <path class="fil0" d="M8653 7466c-34,83 37,14 0,0z"/>
   <path class="fil0" d="M8533 7389c11,11 -17,22 -22,24 17,29 55,-39 22,-24z"/>
   <path class="fil0" d="M7652 6676c10,-15 17,-30 8,-45 -8,15 -17,29 -8,45z"/>
   <path class="fil0" d="M8651 7551c-7,-17 -13,-29 0,0z"/>
   <path class="fil0" d="M8651 7551c-38,-35 -23,16 0,0z"/>
   <path class="fil0" d="M8519 7441c-45,42 -45,18 -20,39 11,52 51,-27 20,-39z"/>
   <path class="fil0" d="M8601 7543c-27,21 -19,12 -27,21 57,12 30,-3 27,-21z"/>
   <path class="fil0" d="M8133 7182c4,14 8,27 12,40 19,-13 0,-46 -12,-40z"/>
   <path class="fil0" d="M7727 6854c11,-19 37,-13 24,-34 -13,7 -31,19 -24,34z"/>
   <path class="fil0" d="M6741 5767c-1,7 -15,7 -7,18 6,-1 20,-2 7,-18z"/>
   <path class="fil0" d="M8841 7938c19,-16 34,-8 54,-29 -12,-8 -55,8 -54,29z"/>
   <path class="fil0" d="M8582 7686c-41,0 -20,29 -24,27 -1,43 33,-38 24,-27z"/>
   <path class="fil0" d="M6971 6065c-3,10 -13,17 -11,28 12,4 24,-13 11,-28z"/>
   <path class="fil0" d="M8810 7961c-33,25 -20,17 0,0z"/>
   <path class="fil0" d="M8810 7961c-47,83 38,-16 0,0z"/>
   <path class="fil0" d="M6966 6096c-96,9 -76,25 -121,46 -31,51 140,-26 121,-46z"/>
   <path class="fil0" d="M7887 7116c-15,25 -27,-2 -41,5 -7,28 60,17 41,-5z"/>
   <path class="fil0" d="M8091 7353c-34,1 -39,12 -47,20 -106,77 57,-24 47,-20z"/>
   <path class="fil0" d="M8706 8042c-78,97 49,-53 33,1 19,-62 -32,-24 -33,-1z"/>
   <path class="fil0" d="M7616 6943c8,-7 17,-17 14,-29 -32,0 -15,17 -14,29z"/>
   <path class="fil0" d="M8481 7818c-20,29 -56,3 -58,28 14,-1 55,3 58,-28z"/>
   <path class="fil0" d="M8086 7432c-51,-16 -32,9 -36,26 -46,85 44,-6 36,-26z"/>
   <path class="fil0" d="M8039 7426c-15,23 -37,31 -60,44 24,15 74,-13 60,-44z"/>
   <path class="fil0" d="M7535 6932c-25,36 35,-1 32,44 8,-38 -9,-48 -32,-44z"/>
   <path class="fil0" d="M6947 6213c13,23 27,4 14,-12l-14 12z"/>
   <path class="fil0" d="M7850 7282c-24,13 -16,27 -19,41 23,0 21,-27 19,-41z"/>
   <path class="fil0" d="M8141 7613c-15,-1 -27,0 0,0z"/>
   <path class="fil0" d="M8141 7613c-43,41 13,5 0,0z"/>
   <path class="fil0" d="M7742 7181c-20,-1 -14,18 -35,30 -12,12 58,-19 35,-30z"/>
   <path class="fil0" d="M7997 7479c-19,2 -53,40 -26,38 -5,-21 42,-16 26,-38z"/>
   <path class="fil0" d="M7662 7137c19,7 30,49 49,38 -10,-1 -24,-63 -49,-38z"/>
   <path class="fil0" d="M8280 7809c-19,15 -36,29 -20,41 22,-15 21,-28 20,-41z"/>
   <path class="fil0" d="M8424 7960c-34,12 -21,9 0,0z"/>
   <path class="fil0" d="M8424 7960c-89,64 21,12 0,0z"/>
   <path class="fil0" d="M7717 7243c11,-6 21,-1 33,-12 -6,-19 -38,-2 -33,12z"/>
   <path class="fil0" d="M8528 8081c-28,22 -52,44 -56,63 30,-33 49,-33 56,-63z"/>
   <path class="fil0" d="M8530 8151c-11,-15 13,-35 15,-52 -36,19 -38,58 -15,52z"/>
   <path class="fil0" d="M7012 6351c-11,-15 -7,-11 -11,-15 -24,20 14,16 11,15z"/>
   <path class="fil0" d="M8442 8152c-113,120 -73,84 -91,104 14,84 104,-125 91,-104z"/>
   <path class="fil0" d="M8501 8231c-17,45 -72,48 -74,90 27,-29 86,-65 74,-90z"/>
   <path class="fil0" d="M8267 7987c-64,32 -47,13 -53,50 -1,51 65,-55 53,-50z"/>
   <path class="fil0" d="M8253 8091c26,-18 8,-33 15,-50 -20,18 -17,34 -15,50z"/>
   <path class="fil0" d="M7823 7525c-12,16 -43,10 -41,31 13,-20 56,-2 41,-31z"/>
   <path class="fil0" d="M8117 7917c-12,25 -46,21 -29,45 12,-15 35,-30 29,-45z"/>
   <path class="fil0" d="M7391 7076c-3,-15 30,-8 13,-32 -11,-6 -36,33 -13,32z"/>
   <path class="fil0" d="M7613 7324c-31,15 -19,11 0,0z"/>
   <path class="fil0" d="M7613 7324c-13,49 3,-7 0,0z"/>
   <path class="fil0" d="M7783 7617c-43,51 27,6 0,0z"/>
   <path class="fil0" d="M7783 7617c-26,1 -16,3 0,0z"/>
   <path class="fil0" d="M8208 8163c-11,-17 -27,-16 -48,-2 12,14 31,5 48,2z"/>
   <path class="fil0" d="M8255 8460c27,-33 76,-44 79,-71 -34,34 -92,38 -79,71z"/>
   <path class="fil0" d="M7546 7484c38,-20 33,-24 25,-35 -10,6 -19,12 -29,17 -7,10 -4,15 4,18z"/>
   <path class="fil0" d="M7921 8124c26,-23 44,-23 68,-38 -23,-24 -64,14 -68,38z"/>
   <path class="fil0" d="M7464 7376c-33,-4 -20,-1 0,0z"/>
   <path class="fil0" d="M7464 7376c-69,35 25,4 0,0z"/>
   <path class="fil0" d="M7990 8341c28,-26 102,-50 88,-65 -36,32 -83,34 -88,65z"/>
   <path class="fil0" d="M7731 7968c16,-15 25,-30 27,-46 -21,14 -38,29 -27,46z"/>
   <path class="fil0" d="M6523 5899c-5,4 -10,11 -17,5 11,23 19,8 17,-5z"/>
   <path class="fil0" d="M7910 8369c13,0 51,-28 47,-43 -19,14 -41,28 -47,43z"/>
   <path class="fil0" d="M6809 6525c-63,16 21,19 0,0z"/>
   <path class="fil0" d="M6809 6525c-19,-10 -20,2 0,0z"/>
   <path class="fil0" d="M7318 7452c-1,1 -2,1 -3,2 -1,14 8,67 3,-2z"/>
   <path class="fil0" d="M7315 7454c-2,1 -4,3 -6,3 2,-1 4,-2 6,-3z"/>
   <path class="fil0" d="M7307 7458c-2,1 -3,2 -4,2 0,0 1,-1 4,-2z"/>
   <path class="fil0" d="M7315 7454c1,-1 2,-1 3,-2 -2,-3 -3,-2 -3,2z"/>
   <path class="fil0" d="M7587 8011c14,2 55,-17 46,-32 -11,23 -40,12 -46,32z"/>
   <path class="fil0" d="M7346 7619c19,-10 32,-21 36,-34 -16,10 -44,18 -36,34z"/>
   <path class="fil0" d="M7379 7692c-119,-80 -20,26 0,0z"/>
   <path class="fil0" d="M7379 7692c-30,-31 -21,-19 0,0z"/>
   <path class="fil0" d="M6701 6502l0 0c-2,-16 -10,-22 0,0z"/>
   <path class="fil0" d="M6701 6502c0,0 0,0 0,0 -3,-1 -54,10 0,0z"/>
   <path class="fil0" d="M7453 8082c22,-7 49,-40 24,-39 15,17 -42,21 -24,39z"/>
   <path class="fil0" d="M7641 8414c0,0 0,0 0,0 -1,0 0,0 0,0z"/>
   <path class="fil0" d="M7641 8414c20,17 11,15 20,17 79,-50 -13,-18 -20,-17z"/>
   <path class="fil0" d="M7186 7688c18,108 14,28 33,4 73,-61 -19,14 -33,-4z"/>
   <path class="fil0" d="M7290 7828c14,-4 20,10 39,-5 -1,-20 -40,-10 -39,5z"/>
   <path class="fil0" d="M7793 8728c11,-9 48,-17 40,-28 -22,7 -52,0 -40,28z"/>
   <path class="fil0" d="M7177 7549c-26,12 -39,13 -42,35 15,7 52,-19 42,-35z"/>
   <path class="fil0" d="M7967 8954c-38,20 -43,26 -61,38 78,-13 43,-24 61,-38z"/>
   <path class="fil0" d="M7614 8386c-35,8 -12,25 -20,37 26,-10 33,-22 20,-37z"/>
   <path class="fil0" d="M7124 7562c10,-5 20,-10 30,-15 -14,-24 -49,-11 -30,15z"/>
   <path class="fil0" d="M7558 8312c0,0 0,0 0,0 -15,13 -23,21 0,0z"/>
   <path class="fil0" d="M7561 8309c-1,1 -2,2 -3,3 -8,12 -24,62 3,-3z"/>
   <path class="fil0" d="M7558 8312c1,-1 2,-1 3,-2 -1,0 -2,1 -3,2z"/>
   <path class="fil0" d="M6428 5938c-8,4 -15,10 -15,23 10,-9 19,-5 15,-23z"/>
   <path class="fil0" d="M7112 7554c-51,2 -15,17 -12,17 -31,35 21,2 12,-17z"/>
   <path class="fil0" d="M7216 7796c-7,13 -42,17 -31,35 20,-8 40,-18 31,-35z"/>
   <path class="fil0" d="M7228 7851c-24,77 25,-10 0,0z"/>
   <path class="fil0" d="M7228 7851c-15,10 -18,15 0,0z"/>
   <path class="fil0" d="M7350 8271c93,-5 49,-21 7,-18 -2,1 -4,2 -6,2 9,10 5,14 -1,15z"/>
   <path class="fil0" d="M7350 8271c-3,0 -7,0 -10,1 -12,-1 1,2 10,-1z"/>
   <path class="fil0" d="M7006 7541c-10,4 -49,-10 -25,24 11,-4 23,-12 25,-24z"/>
   <path class="fil0" d="M7126 7856c-1,-20 -3,-13 -1,-20 -65,2 -4,23 1,20z"/>
   <path class="fil0" d="M7002 7769c68,58 50,-9 55,-22 -35,26 -28,29 -55,22z"/>
   <path class="fil0" d="M7057 7747c1,-1 2,-1 3,-2 -1,0 -2,1 -3,2z"/>
   <path class="fil0" d="M6584 6585c-6,-14 -28,-25 -23,-4 8,-1 14,8 23,4z"/>
   <path class="fil0" d="M6967 7565c-82,18 -3,22 4,25 -4,-25 -3,-17 -4,-25z"/>
   <path class="fil0" d="M7608 8963c-39,12 -18,35 5,31 -11,-12 11,-19 -5,-31z"/>
   <path class="fil0" d="M6560 6589c-53,0 -6,1 0,0z"/>
   <path class="fil0" d="M6560 6589c-7,-14 -12,-21 0,0z"/>
   <path class="fil0" d="M6353 5963c-5,-9 -22,-2 -21,9 11,7 9,-8 21,-9z"/>
   <path class="fil0" d="M6995 7863c26,-4 41,-34 11,-30 13,16 -19,16 -11,30z"/>
   <path class="fil0" d="M6864 7585c17,-6 9,-44 -7,-37 11,16 -4,21 7,37z"/>
   <path class="fil0" d="M6524 6584c-7,-6 -26,-2 -21,14 6,-6 24,-1 21,-14z"/>
   <path class="fil0" d="M6788 7636c-43,42 95,-1 91,-10 -75,13 -48,9 -91,10z"/>
   <path class="fil0" d="M6838 7576c7,-22 8,-20 7,-22 -54,-6 -11,26 -7,22z"/>
   <path class="fil0" d="M6775 7604c-38,-59 -39,20 -39,6 39,-6 24,2 39,-6z"/>
   <path class="fil0" d="M6724 7678c11,-6 26,-11 19,-26 -14,-7 -24,10 -19,26z"/>
   <path class="fil0" d="M6299 6070c-13,5 -6,14 0,0z"/>
   <path class="fil0" d="M6299 6070c-1,7 4,38 0,0z"/>
   <path class="fil0" d="M6716 7650c4,-28 9,-13 4,-28 -55,16 -14,26 -4,28z"/>
   <path class="fil0" d="M7119 8928c4,19 55,18 50,-3 -27,13 -24,-10 -50,3z"/>
   <path class="fil0" d="M6773 7875c-4,-27 -36,-5 -59,-2 13,30 31,-2 59,2z"/>
   <path class="fil0" d="M7220 9621c-102,69 89,-12 103,-5 213,-64 -91,-4 -103,5z"/>
   <path class="fil0" d="M6677 7636c-16,-3 -26,-14 -44,-14 5,16 35,33 44,14z"/>
   <path class="fil0" d="M6258 6034c-1,-19 -2,-12 -1,-19 -25,20 -5,12 1,19z"/>
   <path class="fil0" d="M6707 7976c-19,0 -28,7 0,0z"/>
   <path class="fil0" d="M6707 7976c10,104 27,42 0,0z"/>
   <path class="fil0" d="M6507 7591c69,11 75,0 72,-18 -2,-1 -5,-3 -8,-4 -24,34 -59,-27 -65,21z"/>
   <path class="fil0" d="M6648 7871c-14,16 -30,-2 -39,17 6,3 51,3 39,-17z"/>
   <path class="fil0" d="M6637 7938c-63,-1 -77,8 -90,21 98,-14 58,57 90,-21z"/>
   <path class="fil0" d="M7136 9524c-22,9 -114,24 -83,28 22,-6 114,-25 83,-28z"/>
   <path class="fil0" d="M6572 7721c-14,19 -39,-2 -50,18 8,4 60,4 50,-18z"/>
   <path class="fil0" d="M6638 8108c1,12 7,18 15,21 8,-4 16,-7 24,-10 -9,-9 -26,-8 -39,-11z"/>
   <path class="fil0" d="M6885 9144c15,4 68,-10 64,-28 -31,7 -58,14 -64,28z"/>
   <path class="fil0" d="M6394 7115c-17,-42 -13,-12 -15,-4 -19,47 25,-2 15,4z"/>
   <path class="fil0" d="M6970 9685c-2,32 71,12 67,-10 -27,7 -52,13 -67,10z"/>
   <path class="fil0" d="M6869 9192c-2,-1 -4,-2 -6,-4 -21,-8 -77,1 6,4z"/>
   <path class="fil0" d="M6863 9189c0,0 0,0 1,0 -19,-13 -13,-9 -1,0z"/>
   <path class="fil0" d="M6864 9189c2,1 3,2 5,3 -1,-1 -3,-2 -5,-3z"/>
   <path class="fil0" d="M6417 7786c-18,8 -19,-6 -34,-1 -3,17 43,24 34,1z"/>
   <path class="fil0" d="M6334 7818c34,11 42,22 53,29 -32,-98 -41,-54 -53,-29z"/>
   <path class="fil0" d="M6676 9170c-24,4 -40,11 -46,21 16,7 53,-4 46,-21z"/>
   <path class="fil0" d="M6401 9213c102,-42 151,-9 259,-65 -284,51 -212,6 -259,65z"/>
   <path class="fil0" d="M6092 5484c0,-10 -1,-20 -3,-30 -14,1 -1,37 3,30z"/>
   <path class="fil0" d="M6378 7991c-33,-19 -28,27 -10,26 -8,-15 12,-14 10,-26z"/>
   <path class="fil0" d="M6351 7877c-22,1 -30,10 -23,28 17,-3 25,-13 23,-28z"/>
   <path class="fil0" d="M6443 9746c-16,1 -30,2 -43,4 156,44 326,13 341,-56 -96,44 -207,46 -288,51 1,1 2,3 3,4 -4,-1 -9,-2 -13,-3z"/>
   <path class="fil0" d="M6323 7919c-81,32 31,13 0,0z"/>
   <path class="fil0" d="M6323 7919c-33,-3 -20,-1 0,0z"/>
   <path class="fil0" d="M6241 7942c-1,35 50,4 20,-8 0,7 -10,8 -20,8z"/>
   <path class="fil0" d="M6173 7783c6,4 41,2 38,-16 -17,2 -31,7 -38,16z"/>
   <path class="fil0" d="M6174 7672c-19,-5 -26,-1 0,0z"/>
   <path class="fil0" d="M6174 7672c-35,45 34,33 0,0z"/>
   <path class="fil0" d="M6192 7886c-82,10 -7,30 0,0z"/>
   <path class="fil0" d="M6192 7886c-29,-15 -18,-8 0,0z"/>
   <path class="fil0" d="M6126 7721c0,0 0,0 0,0 -18,-4 -13,-1 0,0z"/>
   <path class="fil0" d="M6126 7720c0,0 1,0 1,0 0,0 0,0 -1,0z"/>
   <path class="fil0" d="M6127 7721c0,0 -1,0 -1,0 -5,4 -31,50 1,0z"/>
   <path class="fil0" d="M6223 9768c-81,22 187,21 182,7 -126,-13 -89,-22 -182,-7z"/>
   <path class="fil0" d="M5984 7729c11,-6 35,-2 31,-20 -19,0 -35,1 -31,20z"/>
   <path class="fil0" d="M5969 7981c4,-15 34,20 35,-8 -24,-1 -52,-18 -35,8z"/>
   <path class="fil0" d="M6098 9779c20,-1 68,14 79,-4 -26,-6 -63,-16 -79,4z"/>
   <path class="fil0" d="M5949 6538c-4,-6 -6,-17 -18,-12 -3,15 17,23 18,12z"/>
   <path class="fil0" d="M5924 8012c4,0 8,0 13,0 6,-7 -6,-21 -17,-31 0,5 0,10 0,15 5,4 8,9 5,17z"/>
   <path class="fil0" d="M5973 9776c27,-4 83,5 90,-9 -35,-2 -83,-23 -90,9z"/>
   <path class="fil0" d="M5847 7724c-3,19 21,13 33,18 3,-19 -14,-19 -33,-18z"/>
   <path class="fil0" d="M5881 6417c-12,9 -22,-3 -28,5 5,16 22,13 28,-5z"/>
   <path class="fil0" d="M5731 6445c6,0 12,1 18,1 11,-26 -15,-15 -18,-1z"/>
   <path class="fil0" d="M5722 5935c-48,14 -2,8 0,0z"/>
   <path class="fil0" d="M5722 5935c-21,-28 -24,-8 0,0z"/>
   <path class="fil0" d="M4479 9495c1,1 2,2 4,2 -1,-1 -2,-2 -4,-2z"/>
   <path class="fil0" d="M4479 9495c-35,-21 -60,-36 -79,-46 -35,-2 -70,-4 -105,-6 48,21 159,40 184,52z"/>
   <path class="fil0" d="M5501 6129c-59,28 18,7 0,0z"/>
   <path class="fil0" d="M5501 6129c-7,-10 -5,-6 0,0z"/>
   <path class="fil0" d="M5386 5980l0 8c1,-3 1,-5 0,-8z"/>
   <path class="fil0" d="M5308 5747c8,1 12,16 22,7 2,-11 -4,-22 -22,-7z"/>
   <path class="fil0" d="M2790 8501c80,69 111,110 143,138 0,-9 0,-19 0,-28 -57,-46 -106,-87 -143,-110z"/>
   <path class="fil0" d="M2310 8015c28,30 58,62 88,94 -8,-48 -42,-84 -88,-94z"/>
   <path class="fil0" d="M2729 8450c106,78 -7,-24 -82,-102 0,7 0,14 0,21 31,32 60,59 82,81z"/>
   <path class="fil0" d="M5336 5284c7,-3 21,-7 31,-9 -11,-14 -23,3 -31,9z"/>
   <path class="fil0" d="M1671 7100c-63,-66 -26,2 -21,14 21,-14 16,-8 21,-14z"/>
   <path class="fil0" d="M4953 5217c-7,-32 -6,-22 0,0z"/>
   <path class="fil0" d="M4953 5217c-10,-3 -17,-5 -22,-6 0,0 1,1 1,1 9,3 23,7 21,5z"/>
   <path class="fil0" d="M4980 5190c17,-15 2,-14 -3,-16 -13,-28 -37,32 3,16z"/>
   <path class="fil0" d="M4893 5006c-22,16 -18,6 -22,16 44,-10 17,-6 22,-16z"/>
   <path class="fil0" d="M4680 4947c9,4 43,4 42,-5 -24,2 -32,-6 -42,5z"/>
   <path class="fil0" d="M4726 4863c-19,2 -9,-11 -25,-10 -16,6 19,25 25,10z"/>
   <path class="fil0" d="M4767 4759c0,0 1,1 1,1 19,7 14,4 -1,-1z"/>
   <path class="fil0" d="M4754 4748c4,3 7,5 10,8 94,5 -4,-22 -10,-8z"/>
   <path class="fil0" d="M4873 4754c-22,-1 -18,-11 -36,-13 -19,5 26,20 36,13z"/>
   <path class="fil0" d="M5108 4715c0,7 0,5 0,7 54,3 2,-7 0,-7z"/>
   <path class="fil0" d="M4471 4559c-13,7 -11,37 -4,42 6,-15 22,-28 4,-42z"/>
   <path class="fil0" d="M5068 4687c-22,-4 -32,0 -37,7 26,6 25,-5 37,-7z"/>
   <path class="fil0" d="M1359 4049c-28,136 22,58 13,18 0,24 1,-49 -13,-18z"/>
   <path class="fil0" d="M4888 4496c-103,-41 -132,8 -92,62 46,-42 47,-48 92,-62z"/>
   <path class="fil0" d="M1834 4024c2,0 5,-1 7,-2 -4,-57 -11,-20 -7,2z"/>
   <path class="fil0" d="M1852 4018c0,0 0,0 0,0 1,-3 1,-3 0,0z"/>
   <path class="fil0" d="M4665 4372c-54,-2 9,40 14,33 7,-43 16,-48 -14,-33z"/>
   <path class="fil0" d="M4695 4388c19,5 29,13 45,20 8,-15 -37,-33 -45,-20z"/>
   <path class="fil0" d="M4780 4386c-68,-19 34,31 18,21 6,-18 -14,-18 -18,-21z"/>
   <path class="fil0" d="M1815 3544c18,-44 -3,-41 -6,-45 6,-79 -19,61 6,45z"/>
   <path class="fil0" d="M1862 3511c-11,-1 -18,-6 -21,-15 -15,36 9,63 21,15z"/>
   <path class="fil0" d="M4874 4383c-24,-15 -16,6 -28,6 20,11 18,-5 28,-6z"/>
   <path class="fil0" d="M1565 3372c12,-12 26,-50 11,-55 -10,24 -27,43 -11,55z"/>
   <path class="fil0" d="M1613 3301c0,1 0,1 1,2 0,-4 0,-4 -1,-2z"/>
   <path class="fil0" d="M1613 3301c-6,-21 -20,-8 -33,6 17,50 30,3 33,-6z"/>
   <path class="fil0" d="M4673 4236c-97,-47 -18,18 -8,25 -43,-40 11,-9 8,-25z"/>
   <path class="fil0" d="M4584 4196c10,-21 -7,-19 -17,-25 -8,13 7,22 17,25z"/>
   <path class="fil0" d="M2123 3219c19,-34 29,-92 -2,-64 20,17 -20,45 2,64z"/>
   <path class="fil0" d="M5491 4611c7,4 10,8 21,13 15,0 -13,-15 -21,-13z"/>
   <path class="fil0" d="M5523 4629c9,5 18,10 27,15 5,-8 -25,-14 -27,-15z"/>
   <path class="fil0" d="M5624 4683c7,-6 -12,-11 -22,-14 21,14 19,13 22,14z"/>
   <path class="fil0" d="M5603 4669c-1,-1 -3,-2 -4,-3 -3,0 0,1 4,3z"/>
   <path class="fil0" d="M2172 2804c-31,10 -63,101 -54,112 28,-56 27,-67 54,-112z"/>
   <path class="fil0" d="M2202 2838c13,-33 28,-51 42,-71 -18,-9 -59,59 -42,71z"/>
   <path class="fil0" d="M2736 2799c-43,41 -28,31 -25,59 -9,71 31,-64 25,-59z"/>
   <path class="fil0" d="M1890 2353c-20,7 -36,66 -28,75 7,-35 46,-68 28,-75z"/>
   <path class="fil0" d="M4803 3988c29,24 127,36 61,15 -147,-150 -15,-10 -61,-15z"/>
   <path class="fil0" d="M4760 3964c1,-15 12,-12 7,-24 -12,-2 -24,9 -7,24z"/>
   <path class="fil0" d="M2588 2517c-64,23 -85,121 -80,148 73,-128 100,-118 80,-148z"/>
   <path class="fil0" d="M3953 3399c-6,10 -8,21 -6,32 7,-9 41,-15 6,-32z"/>
   <path class="fil0" d="M2967 2877c16,-65 15,-42 38,-39 -32,-76 -45,48 -38,39z"/>
   <path class="fil0" d="M2788 2739c-1,1 -2,1 -4,1 1,2 2,1 4,-1z"/>
   <path class="fil0" d="M2811 2711c-10,-23 -18,18 -23,29 36,-15 21,-12 23,-29z"/>
   <path class="fil0" d="M2874 2628c1,-87 -37,37 -49,49 32,-21 41,-30 49,-49z"/>
   <path class="fil0" d="M2823 2678c0,0 1,-1 2,-1 -1,0 -1,1 -2,1z"/>
   <path class="fil0" d="M3047 2660c15,31 8,38 12,48 63,-70 7,-45 -12,-48z"/>
   <path class="fil0" d="M3012 2403c-6,34 -56,53 -39,74 15,-26 54,-60 39,-74z"/>
   <path class="fil0" d="M3103 2512c68,-22 43,-20 44,-53 7,-67 -28,36 -44,53z"/>
   <path class="fil0" d="M3103 2512c-2,1 -3,1 -5,2 1,1 3,1 5,-2z"/>
   <path class="fil0" d="M2756 2295c12,-17 35,-65 3,-45 0,15 -17,36 -3,45z"/>
   <path class="fil0" d="M3023 2399c37,-94 -18,-1 0,0z"/>
   <path class="fil0" d="M3023 2399c23,-22 14,-15 0,0z"/>
   <path class="fil0" d="M3277 2529c44,-68 27,-51 0,-40 -34,32 -8,31 0,40z"/>
   <path class="fil0" d="M3332 2441c-21,-22 -80,36 -64,50 16,-27 36,-39 64,-50z"/>
   <path class="fil0" d="M2498 1844c-62,-59 -106,51 -93,71 101,-32 44,-56 93,-71z"/>
   <path class="fil0" d="M3089 2332c36,-56 20,-45 3,-34 -29,31 -10,24 -3,34z"/>
   <path class="fil0" d="M2889 2074c-11,14 -51,36 -44,54 11,-14 50,-35 44,-54z"/>
   <path class="fil0" d="M3136 2217c-17,23 -9,38 -16,58 18,-23 32,-45 16,-58z"/>
   <path class="fil0" d="M3594 2557c67,-79 1,-2 0,0z"/>
   <path class="fil0" d="M3594 2557c16,1 23,-1 0,0z"/>
   <path class="fil0" d="M2946 2053c35,-41 -22,-35 -41,-18 12,15 29,-1 41,18z"/>
   <path class="fil0" d="M3156 2174c20,26 14,16 0,0z"/>
   <path class="fil0" d="M3156 2174c82,19 -9,-38 0,0z"/>
   <path class="fil0" d="M3714 2532c20,-8 35,25 42,36 47,-26 -43,-68 -42,-36z"/>
   <path class="fil0" d="M3426 2248c11,-70 -8,2 0,0z"/>
   <path class="fil0" d="M3426 2248c22,-12 33,-18 0,0z"/>
   <path class="fil0" d="M3185 2040c35,-29 22,-19 0,0z"/>
   <path class="fil0" d="M3185 2040c90,-116 -41,-16 0,0z"/>
   <path class="fil0" d="M4701 3348c82,74 -10,-67 0,0z"/>
   <path class="fil0" d="M4701 3348c-19,2 -12,2 0,0z"/>
   <path class="fil0" d="M3357 2036c-11,18 -32,38 -24,52 13,-19 39,-40 24,-52z"/>
   <path class="fil0" d="M3855 2490c18,-20 33,-4 50,-16 -11,-22 -51,-3 -50,16z"/>
   <path class="fil0" d="M3530 2175c55,-58 135,-78 191,-132 -75,20 -149,66 -191,132z"/>
   <path class="fil0" d="M5064 3624c-12,-15 -40,-17 -36,1 12,2 26,16 36,-1z"/>
   <path class="fil0" d="M4129 2641c88,-106 36,-85 0,-50 -1,3 -2,7 -3,10 1,-1 2,-1 2,0 -1,1 -2,1 -3,2 -8,24 -4,31 4,39z"/>
   <path class="fil0" d="M4114 2564c-16,5 -7,12 -3,18 20,-47 3,-31 3,-18z"/>
   <path class="fil0" d="M5071 3609c19,25 30,30 0,0z"/>
   <path class="fil0" d="M5071 3609c61,-1 -3,-8 0,0z"/>
   <path class="fil0" d="M4385 2820c5,-11 32,-20 24,-30 -7,-1 -44,18 -24,30z"/>
   <path class="fil0" d="M3843 2105c-13,16 -28,33 -14,46 17,-3 35,-33 14,-46z"/>
   <path class="fil0" d="M3853 2104c49,-80 -2,-15 -13,-13 13,13 8,10 13,13z"/>
   <path class="fil0" d="M4483 999c19,2 43,-17 51,-30 -9,-2 -71,14 -51,30z"/>
   <path class="fil0" d="M4701 992c64,-7 78,-10 95,-14 48,-57 -115,6 -95,14z"/>
   <path class="fil0" d="M5348 914c77,-35 -108,-64 -87,1 47,2 66,-3 87,-1z"/>
   <path class="fil0" d="M6577 1218c-5,-2 -10,-4 -16,-6 1,4 7,6 16,6z"/>
   <path class="fil0" d="M6750 1195c147,-54 -106,25 -173,23 130,50 80,-18 173,-23z"/>
   <path class="fil0" d="M7714 2631c-1,22 8,20 15,27 62,8 -31,-39 -15,-27z"/>
   <path class="fil0" d="M8355 2149c-15,2 -71,-41 -61,-14 17,7 37,22 61,14z"/>
   <path class="fil0" d="M8069 3014c-4,-13 -10,-32 -15,-16 -4,24 9,17 15,16z"/>
   <path class="fil0" d="M8073 3015c0,-2 -2,-2 -4,-1 3,8 4,14 4,1z"/>
   <path class="fil0" d="M8339 3410c59,58 33,10 36,-4 -36,4 -20,1 -36,4z"/>
   <path class="fil0" d="M8675 4152c50,103 -12,-47 42,13 -45,-58 -62,-29 -42,-13z"/>
   <path class="fil0" d="M9737 4099c22,-30 -7,-32 0,0z"/>
   <path class="fil0" d="M9737 4099c13,23 12,8 0,0z"/>
   <path class="fil0" d="M8953 4695c-1,-33 41,4 39,-27 -23,-2 -55,18 -39,27z"/>
   <path class="fil0" d="M9372 4730c-10,-19 -26,-11 0,0z"/>
   <path class="fil0" d="M9372 4730c-19,125 -6,59 0,0z"/>
   <path class="fil0" d="M8845 4935c56,116 -33,187 31,129 32,190 151,-299 -31,-129z"/>
   <path class="fil0" d="M8595 4959c29,13 55,50 70,44 -39,-77 -88,-76 -70,-44z"/>
   <path class="fil0" d="M8779 5082c21,-73 27,-162 -19,-128 52,54 -22,166 19,128z"/>
   <path class="fil0" d="M7992 5089c5,17 11,21 17,24 20,-61 -7,2 -17,-24z"/>
   <path class="fil0" d="M7992 5089c-1,-2 -1,-5 -2,-8 1,3 1,6 2,8z"/>
   <path class="fil0" d="M8735 5093c13,-1 3,22 6,31 39,3 4,-51 -6,-31z"/>
   <path class="fil0" d="M8819 5284c-3,4 -5,9 -8,14 4,0 7,-5 8,-14z"/>
   <path class="fil0" d="M8868 5141c-48,-16 -40,102 -50,143 86,-143 6,-123 50,-143z"/>
   <path class="fil0" d="M8014 5405c-75,76 45,146 -75,106 48,174 121,-17 109,-115 -15,19 -34,32 -34,9z"/>
   <path class="fil0" d="M8038 5362c5,9 9,21 10,35 22,-27 37,-66 -10,-35z"/>
   <path class="fil0" d="M4734 4337c0,0 1,0 1,0 0,-1 0,-3 0,-4 -1,0 -1,0 -2,-1 0,1 1,3 1,5z"/>
   <path class="fil0" d="M6069 7887c-28,-11 -22,-8 0,0z"/>
   <path class="fil0" d="M5919 7814c0,10 0,20 0,30 121,6 252,11 0,-30z"/>
   <path class="fil0" d="M5931 6594c10,6 18,11 27,16 -8,-48 -24,-34 -27,-16z"/>
   <path class="fil0" d="M7807 6099c0,11 1,22 2,32 14,-19 17,-32 -2,-32z"/>
   <path class="fil0" d="M5142 5028c-44,7 -34,8 -22,14 8,-3 15,-6 24,-8 0,-1 -1,-3 -1,-6z"/>
   <path class="fil0" d="M5160 5066c-16,2 -22,-2 -28,-7 19,-3 23,2 28,7zm20 165c-21,8 -21,-1 -29,-4 33,-12 18,1 29,4zm231 111c-13,6 -33,20 -36,14 12,-8 32,-19 36,-14zm249 431c-72,-103 11,62 -54,-377 -44,-181 -606,53 -514,-101 46,-10 103,8 163,-249 -41,-19 -78,-22 -112,-13 1,4 1,3 -19,11 -2,-1 -3,-2 -5,-3 -94,42 -141,172 -88,215 22,42 -32,14 -81,-25 103,116 195,241 274,369 60,12 199,63 436,173z"/>
   <path class="fil0" d="M7987 7931c-3,2 -7,2 -9,1 -6,5 -13,9 -19,14 8,8 36,8 28,-14z"/>
   <path class="fil0" d="M4842 5059c3,2 6,5 9,7 -3,-8 -6,-9 -9,-7z"/>
   <path class="fil0" d="M7324 8384c-21,17 -43,35 -65,54 40,-26 62,-42 65,-54z"/>
   <path class="fil0" d="M6069 7887c11,4 27,10 49,19 -58,8 -155,-21 -9,46 31,-3 65,-10 101,-21 -19,1 -103,-29 -141,-43z"/>
   <path class="fil0" d="M6109 7952c-1,0 -1,0 -2,0 3,1 6,2 9,3 -2,-1 -4,-2 -7,-3z"/>
   <path class="fil0" d="M6107 7952c-106,-33 -132,-40 -188,-62 0,17 0,34 0,51 52,5 113,18 188,11z"/>
   <path class="fil0" d="M2121 3091c1,-1 2,-2 2,-3 7,-19 15,-36 22,-52 -14,8 -31,45 -24,55z"/>
   <path class="fil0" d="M2328 2846c-1,8 -4,17 -8,26 7,-3 10,-9 8,-26z"/>
   <path class="fil0" d="M8013 8000c0,0 -1,0 -1,1 0,0 1,0 1,-1 0,0 0,0 0,0z"/>
   <path class="fil0" d="M1513 6728c-3,-5 -6,-10 -10,-14 6,15 10,21 10,14z"/>
   <path class="fil0" d="M5484 9557c-187,-27 -380,-51 -580,-69 180,37 372,61 580,69z"/>
   <path class="fil0" d="M1258 5137c-8,-50 -17,-101 -27,-151 -1,56 -5,122 27,151z"/>
   <path class="fil0" d="M3791 2219c-1,2 -1,3 -2,5 2,-2 3,-3 2,-5z"/>
   <path class="fil0" d="M4734 4337c0,1 0,1 0,2 2,-1 2,-2 0,-2z"/>
   <path class="fil0" d="M4523 4186c-3,-1 -5,-2 -7,-3 2,2 4,3 6,4 1,-1 1,-1 2,-2z"/>
   <path class="fil0" d="M3904 2803c7,-10 15,-20 23,-31 -11,3 -16,17 -23,31z"/>
   <path class="fil0" d="M3884 2832c9,-7 15,-18 20,-29 -8,10 -14,20 -20,29z"/>
   <path class="fil0" d="M4734 4339c0,-1 0,-1 -1,-2 -12,-2 -65,0 1,2z"/>
   <path class="fil0" d="M5404 6231c4,-18 -1,-25 16,31 1,1 1,1 0,0 0,0 0,0 0,0 -7,-5 -54,-36 -16,-31zm30 789c9,25 -59,12 0,0 -13,-9 -20,-17 0,0zm213 -439c-5,8 -13,11 -22,9 0,-26 19,-17 22,-9zm48 1081c1,16 0,31 -21,23 3,-11 4,-26 21,-23zm52 -9c13,27 45,3 43,45 -18,-11 -51,-10 -43,-45zm50 51c4,0 8,0 11,1 1,0 2,0 4,0 3,0 6,0 8,0 1,0 1,0 1,0 0,0 0,0 0,0 0,0 0,0 0,0 0,0 -1,0 -1,0 -2,0 -4,0 -8,0 -1,0 -2,0 -4,0 -3,0 -7,0 -11,-1 -9,2 37,-46 0,0zm29 -1088c13,2 23,9 21,32 -10,-6 -27,-4 -21,-32zm46 -35c10,-3 8,11 19,6 1,24 -24,10 -19,-6zm84 65c10,-10 9,-1 10,5 1,1 3,1 4,2 -3,2 -4,1 -4,-2 -4,-2 -8,-4 -10,-5 -1,1 -2,2 -4,4 0,0 0,0 0,0 0,0 0,0 0,0 0,-1 -10,-9 4,-4zm1059 283c57,-10 -477,191 -228,129 173,-81 436,-121 108,31 40,-76 -405,144 -733,50 118,-37 482,-199 852,-210zm-786 146c1,0 2,1 6,4 -2,-2 -4,-3 -6,-4 -3,0 -5,6 -29,9 6,-20 -11,-37 29,-9zm14 27l-3 -24c18,-8 23,25 3,24zm762 -643c-9,16 -18,-9 -27,-3 -4,-17 19,-12 27,3zm59 604c-2,12 -12,22 -28,30 4,-12 11,-35 28,-30zm91 202c5,24 -47,41 -61,26 19,-13 42,-14 61,-26zm-19 -272c9,18 -23,31 -31,11 11,-7 22,-14 31,-11zm49 -3c11,2 -17,11 -29,26 -17,-26 16,-27 29,-26zm16 213c16,15 -11,17 -19,25 -6,-14 2,-31 19,-25zm4 -95c11,-10 43,29 14,35 5,-19 -18,-21 -14,-35zm38 -392c11,6 21,50 0,0 -12,8 -19,8 0,0zm69 -65c16,9 -50,153 -57,31 7,-6 16,-13 57,-31zm14 -154c-16,6 -13,-3 -24,15 -17,-16 16,-31 24,-15zm25 -52c23,-16 20,-43 68,-6 2,0 4,1 4,3 -1,-1 -3,-2 -4,-3 -23,-1 -139,68 -68,6zm58 -62c37,25 8,54 -22,24 7,-8 14,-16 22,-24zm113 -347c12,15 -10,30 -25,29 -28,-21 12,-31 25,-29zm58 190c54,-3 -118,133 -47,33 -2,-19 28,-3 47,-33zm23 -220c18,6 -1,34 -3,29 -21,-8 2,-19 3,-29zm-249 573c-4,-11 2,-20 13,-29 13,13 -6,31 -13,29zm7 483c-29,-13 -28,6 -84,15 -6,5 -11,6 -13,2 5,-1 9,-1 13,-2 41,-33 154,-228 84,-15zm-8 -146c10,12 13,22 10,31 -22,18 -40,-24 -10,-31zm98 159c-56,80 -83,61 -89,9 31,-112 76,3 89,-9zm-196 15l10 15c-28,20 -47,-11 -10,-15zm59 6c50,8 -153,120 0,0 -28,22 -45,30 0,0zm-84 155c13,-35 1,-58 127,-80 -32,-53 160,-56 -127,80zm10 29c28,-6 28,-19 57,-35 -2,23 -34,66 -57,35zm-51 22c-15,-35 38,-32 46,-5 -16,2 -26,-13 -46,5zm-51 13c29,-4 40,-33 67,28 -16,-43 -122,37 -67,-28zm-135 -252c14,-17 17,10 30,-2 11,14 -21,32 -30,2zm7 43c-16,-4 -38,-64 20,-15 8,15 0,0 -20,15zm-101 25c-14,-24 16,-25 29,-28 14,19 -20,19 -29,28zm-102 26c-11,-23 12,-23 25,-24 13,18 -16,17 -25,24zm-355 411c-15,-2 -14,-36 5,-33 14,21 -14,15 -5,33zm-21 -8c-125,51 -65,-45 4,0 -4,7 -38,38 -4,0zm1293 -1798c11,24 -17,38 -35,22 6,-14 19,-22 35,-22zm80 -145c14,7 8,20 10,31 -27,-7 -16,-23 -10,-31zm-82 427c-9,1 -14,11 -19,21 -17,-12 -9,-44 19,-21zm49 -42c-37,-21 -22,-24 0,0 -13,23 -88,44 0,0zm-101 538c3,11 -21,5 7,20 17,16 -69,8 -7,-20zm-50 -64c-15,-20 14,-15 22,-35 20,12 -14,35 -22,35zm0 72c-4,17 -3,10 0,-2 0,-3 1,-5 2,-6 3,39 -2,21 -2,8zm-54 -98c40,-7 25,-64 102,-85 -14,5 -9,91 -102,85zm-15 87c1,-10 9,-38 24,-13 -2,15 8,24 -24,13zm170 -245c10,10 -12,22 -15,33 -20,-16 0,-34 15,-33zm61 -61c2,14 -23,29 -41,20 23,-1 12,-35 41,-20zm117 189c20,-12 -7,78 0,0 -15,13 -26,21 0,0zm66 12c53,5 -14,140 -55,36 11,6 22,5 55,-36zm-427 682c0,17 -16,48 -32,49 -10,-35 17,-27 32,-49zm24 -19c34,-17 6,53 0,0 -6,14 -10,24 0,0zm101 -70c5,31 -53,55 -74,64 -5,-41 44,-33 74,-64zm43 -25c35,-41 8,-2 67,-11 5,31 -150,3 -67,11zm38 -76c17,30 30,-34 56,12 1,0 1,1 1,2 0,-1 -1,-1 -1,-2 -8,-1 -65,76 -56,-12zm50 54c-9,3 -50,-2 2,-28 3,15 0,0 -2,28zm-31 37c-23,5 -43,7 0,0 23,29 -123,44 0,0zm-3811 -447c10,-15 18,-4 27,-16 12,14 -16,37 -27,16zm1365 -32l0 919c-98,-23 -147,-34 -245,-53l0 -919c0,-39 -16,-78 -42,-109 -26,-31 -61,-53 -100,-60 -78,-14 -142,39 -142,118l0 919c-99,-16 -148,-23 -247,-36l0 -919c0,-39 -16,-77 -42,-106 -26,-29 -62,-49 -101,-53 -79,-9 -143,50 -143,128l0 919c-100,-9 -149,-12 -249,-18l0 -919c0,-39 -16,-76 -42,-103 -26,-27 -62,-44 -102,-46 -79,-3 -144,60 -144,138l0 919c-100,-2 -150,-2 -249,0l0 -919c0,-77 -62,-139 -139,-139 -2,0 -3,0 -5,0 -79,3 -144,70 -144,149l0 919c-100,5 -149,9 -249,18l0 -919c0,-73 -56,-129 -128,-129 -5,0 -10,0 -15,1 -79,8 -143,81 -143,159l0 919c-99,13 -148,20 -247,36l0 -919c0,-70 -51,-120 -117,-120 -8,0 -16,1 -25,2 -78,14 -142,91 -142,169l0 919c-41,8 -73,15 -104,21 29,41 59,83 90,125 1225,-240 2466,-183 3685,170 166,-29 419,-64 668,-92 32,-77 79,-74 117,-56 2,-2 3,-5 5,-9 1,4 2,9 2,13 40,22 69,56 55,19 140,-97 276,-38 660,-219 15,-51 171,-138 -80,-39 96,-55 103,-139 279,-181 -234,200 -15,-28 14,125 59,109 -1,34 40,-67 -27,1 -6,-15 10,-21 18,-34 49,-70 101,-102 -42,105 448,-340 151,-136 -3,-12 2,-21 31,-58 190,-27 44,-83 -6,-8 -9,-15 -28,-15 -53,-6 -1,2 -1,5 -2,7 0,-3 0,-5 0,-6 -96,38 -275,213 -324,231 -3,-44 154,-258 -12,-76 -13,-38 -25,-49 -31,-51 -8,3 -6,-2 0,0 10,-4 37,-22 89,-90 -94,40 -251,14 -14,-20 -20,-94 116,-176 51,20 37,33 227,-71 238,-172 -146,86 -89,11 66,-149 -31,22 -70,47 -112,71 -2,4 -3,8 -5,13 -3,-2 -5,-4 -7,-6 -165,94 -364,172 -296,-6 -16,-2 -162,132 -77,19 31,-62 79,-227 157,-320 -6,-12 -17,-42 1,-1 2,-2 4,-4 5,-6 5,-16 9,-16 7,-8 43,-46 95,-68 158,-39 -295,79 -176,335 24,300 448,-325 34,235 212,7 60,27 277,-317 190,-552 -132,150 -268,360 -289,82 -59,77 -312,248 -21,-46 3,-68 -26,-35 -59,4 7,6 4,4 0,0 -36,42 -76,92 -85,30 63,-55 66,-9 146,-146 116,-88 -91,34 -44,-37 108,-105 -1,-53 -103,43 -3,-70 199,-243 300,-592 -94,132 -186,281 -283,422 6,12 -10,19 -9,31 -3,-2 -6,-5 -7,-7 -178,256 -373,478 -623,502 84,59 33,116 -68,91 65,-41 12,-125 5,-28 3,6 -301,88 -114,89 416,-96 -504,324 -627,142 -178,-119 89,91 -172,45 -120,12 11,-44 -75,-62 -31,18 -39,-2 -36,-18 -149,-94 -450,-335 -546,-393l0 229c-41,14 -69,53 -69,106z"/>
   <path class="fil0" d="M3326 7900c-79,3 -144,70 -144,149 0,241 0,405 0,595 91,75 187,151 287,227 0,-310 0,-498 0,-832 0,-78 -64,-141 -144,-138z"/>
   <path class="fil0" d="M2790 7938c-79,8 -143,80 -143,159 0,23 0,45 0,67 89,87 184,176 286,267 0,-109 0,-224 0,-365 0,-78 -64,-137 -143,-128z"/>
   <path class="fil0" d="M1777 4020c-18,-2 -5,-74 16,-60 -4,40 1,37 -16,60zm-44 -278c-24,12 -67,-13 0,-50 3,8 2,18 0,50zm-253 98c-17,-20 -9,-55 21,-42 0,24 -22,17 -21,42zm-47 -80c-69,82 -11,-66 -24,-86 -34,-76 167,2 24,86zm-102 495c6,-32 -54,-485 72,-279 -34,56 50,0 -72,279zm20 -681c4,6 5,14 -5,46 -27,-11 -49,-14 5,-46zm-68 430c-24,1 4,-70 -11,-81 22,-31 25,36 11,81zm-5 -333c0,-1 0,-2 1,-1 0,1 -1,1 -1,1 0,10 14,58 -6,53 -13,-21 -23,-5 6,-53zm-26 469c-14,-15 -14,-38 -4,-69 15,2 7,39 4,69zm-35 -291c13,-8 2,-201 27,-18 -7,46 -4,37 -27,18zm-9 296c-11,25 -22,36 -31,4 15,24 39,-44 31,-4zm-37 604l1 -46c24,-11 23,53 -1,46zm1 103c-30,8 -11,-51 -8,-80 21,4 10,54 8,80zm9 -576c12,27 -11,21 -11,58 -18,-1 -11,-69 11,-58zm197 -572c-17,16 -62,-12 -19,-83 4,16 5,31 19,83zm14 172c-4,-50 -59,19 -38,-61 28,2 51,7 38,61zm-215 1864c12,7 22,35 17,55 -15,4 -23,-38 -17,-55zm118 358c-23,-66 -63,-144 -66,-207 36,28 77,153 66,207zm41 119c-8,11 69,182 5,114 -17,-55 -46,-74 -5,-114zm523 -2089c5,-16 9,-26 0,0 -39,47 4,-85 0,0zm68 -103c9,-14 110,-37 22,51 -15,-31 -24,25 -22,-51zm337 -1088c-15,28 -33,31 -49,46 -23,-24 48,-72 49,-46zm-12 92c47,-25 -20,-10 42,-69 24,11 -59,153 -42,69zm-35 2c-1,1 -3,3 -4,5 -1,-22 1,-16 4,-5 15,-16 44,-22 6,29 0,3 -3,-17 -6,-29zm217 34c9,12 -18,56 -31,40 7,-30 20,-24 31,-40zm133 277c31,-99 211,-282 41,-46 163,-200 10,158 109,-45 102,-87 25,-43 10,125 44,-213 154,-47 -111,119 128,-124 -6,-16 -17,-66 -31,-7 42,-104 -19,-36 -18,-5 -21,-22 -15,-45 -21,-14 -28,15 -51,51 -16,11 74,-236 52,-56zm22 -81c25,-163 8,-59 -64,26 39,-173 219,-294 64,-26zm7 -334c-10,21 -22,22 -32,37 -18,-15 16,-49 32,-37zm12 -87c9,2 6,63 -28,39 6,-15 15,-29 28,-39zm92 291c-6,17 -18,37 -38,23 11,-23 12,-40 38,-23zm35 392c-11,-10 -6,-44 6,-52 26,6 5,34 -6,52zm140 -382c9,-19 33,7 19,24 -16,-2 -26,-10 -19,-24zm192 -300c-40,-26 31,-57 0,0zm42 -65c-5,28 -24,29 -30,12 -1,10 -14,-34 30,-12zm12 37c-9,18 -20,10 -28,33 -16,-10 13,-51 28,-33zm227 -236c-10,17 -20,25 -30,30 -14,-12 17,-44 30,-30zm128 -51c168,-43 151,-21 -76,88 3,-59 191,-189 76,-88zm115 -131c-1,25 -13,46 -40,53 -5,-28 18,-26 40,-53zm-73 1222l77 -151 77 151c31,62 13,138 -44,178l0 0 0 31c0,82 36,159 99,211l-263 0c63,-52 99,-130 99,-211l0 -31c-57,-40 -75,-116 -44,-178zm-84 -999c14,-17 28,-43 41,-21 -13,8 -27,34 -41,21zm468 832c44,-10 -34,-101 132,-183 164,-9 -238,354 -132,183zm276 -282c-20,3 -175,132 -143,77 -81,21 15,-182 143,-77zm110 -17c-22,92 -9,-23 -77,44 1,-45 -73,-119 77,-44zm59 450l-11 18c-22,-10 -6,-34 11,-18zm16 366c7,4 62,31 -5,13 2,-4 0,0 5,-13zm19 -342c28,13 17,12 0,0 -5,-5 44,-49 0,0zm56 -176c28,1 42,11 -5,69 0,-36 -64,-42 5,-69zm25 583c-18,10 -9,55 -68,16 17,-7 31,-4 68,-16 2,-1 4,-2 6,-2 -2,1 -4,1 -6,2zm-8 297c-23,-11 -8,-29 -2,-40 6,11 11,35 2,40zm409 11c24,14 6,13 4,26 -28,-12 -3,-11 -4,-26zm-288 405c22,4 18,18 7,22 -13,-1 -3,-15 -7,-22zm79 1c-4,26 53,32 -23,39 5,-9 -5,-18 23,-39zm-2852 1685l0 -519c1165,-275 2347,-281 3513,-16 -7,-31 -16,-63 -28,-98 -486,-127 -1067,-201 -1693,-201 -649,0 -1250,80 -1746,216 282,-577 841,-1132 1503,-1244l0 -112 32 0 0 -234 -32 0c0,-90 73,-162 162,-162l162 0c90,0 162,73 162,162l-32 0 0 234 32 0 0 112c277,47 535,171 763,342 11,-15 24,-30 38,-44 0,-2 1,-4 2,-6 2,-1 4,-2 6,-3 36,-36 77,-65 115,-75 40,16 34,2 8,-21 -3,-1 -7,-2 -11,-4 -3,-3 -4,-6 -3,-8 -78,-61 -250,-155 -179,-14 -64,86 -17,-10 -148,-86 -294,-159 275,-149 82,-175 -88,-133 9,-193 90,-76 40,-88 63,-90 134,-64 -8,-28 2,-22 2,1 29,11 66,26 115,41 198,25 56,-114 13,-55 -126,-171 -116,44 -341,-132 -13,14 0,5 -63,-2 5,-11 13,-18 57,-2 -8,-6 -16,-13 -24,-20 81,-74 -151,-139 183,-171 -72,141 31,102 170,154 27,-5 72,21 -95,-56 122,-14 5,-19 46,-67 -25,35 -251,-224 -55,-87 78,-59 -73,-286 142,-62 44,-71 -176,-187 -251,-327 83,63 53,7 -345,-491 197,-138 146,196 219,116 -73,-109 463,-229 365,-388 -250,-255 -536,216 -579,134 -8,-76 -40,-123 -134,-82 -19,10 -411,211 -273,-6 -11,9 -26,12 -49,2 -287,12 216,-138 -38,-292 -57,70 -132,146 -284,193 3,-324 234,-238 349,-433 2,-106 -143,114 -72,-78 -36,30 -530,69 -369,228 -61,234 -37,-98 -135,113 -108,239 -156,92 -242,254 -70,107 59,9 -26,151 -47,-67 -83,118 -119,170 31,-116 -145,-23 19,-199 71,-126 -99,88 10,-72 -113,-88 -17,89 -223,90 -31,-35 5,-171 -55,-151 61,-192 -449,582 -279,117 -76,114 -21,-35 -84,33 -85,68 4,-18 34,-89 -23,10 -91,-19 -175,165 4,-2 8,-2 12,2 -9,32 -22,37 -33,49 -11,29 -23,62 -35,99 142,-220 79,-21 -165,807 -28,1 -52,15 -71,23 -1,3 -5,9 -10,19 -4,1 -7,-5 -8,-13 -39,6 -55,-51 -44,-403 -31,-4 -47,3 -54,9 -5,13 -8,7 0,0 6,-15 13,-57 3,-155 -32,49 -175,8 -68,93 30,75 -170,381 -131,215 58,-148 -24,-281 -118,-231 -33,32 -24,108 -88,-15 -382,439 -375,2355 169,3177 -65,-160 -440,-1412 -298,-1853 9,42 17,84 25,126 0,-23 0,-44 -4,-60 50,29 37,163 31,212 0,0 0,0 -1,-1 106,639 145,1300 613,2070l0 -672c0,-52 -28,-91 -69,-106z"/>
   <polygon class="fil0" points="3540,4220 3489,4220 3489,4455 3540,4455 "/>
   <polygon class="fil0" points="3698,4455 3698,4220 3647,4220 3647,4455 "/>
   <path class="fil0" d="M4641 4861c1,-1 2,-2 4,-4 -2,1 -3,1 -5,2 0,1 1,1 1,2z"/>
   <path class="fil0" d="M2565 3349c0,-2 0,-4 1,-6 -1,2 -1,4 -2,6 0,0 1,0 1,1z"/>
   <path class="fil0" d="M6818 8258c-4,0 -8,-2 -11,-3 -4,2 -8,5 -11,7 9,4 18,5 23,-4z"/>
   <path class="fil0" d="M4767 4759c-1,-1 -2,-2 -3,-3 -2,0 -4,0 -7,0 4,1 7,2 10,3z"/>
   <path class="fil0" d="M4826 5102c19,19 39,38 57,58 -9,-20 5,-30 61,-15 47,-20 -42,-41 -94,-79 1,3 2,7 3,11 -6,-1 0,0 -19,0 1,-3 3,-14 7,-18 -7,-6 -13,-12 -17,-19 77,-58 26,-20 22,-81 -11,19 23,-111 -114,58 27,24 53,48 79,73 14,-3 31,-6 14,14z"/>
   <path class="fil0" d="M1852 4018c-4,2 -7,3 -11,4 0,4 1,9 1,15 4,-8 8,-15 10,-19z"/>
   <path class="fil0" d="M5796 7704c4,0 8,0 11,1 -3,0 -7,0 -11,-1z"/>
   <path class="fil0" d="M7505 6352c6,-8 9,-15 10,-20 -2,2 -5,5 -7,8 -1,3 -2,7 -3,12z"/>
   <path class="fil0" d="M8313 8321c9,-6 18,-12 28,-19 -7,2 -14,5 -21,7 0,3 -3,7 -6,12z"/>
   <path class="fil0" d="M7619 6543c0,1 0,1 0,2 1,-2 1,-5 2,-8 -1,2 -1,4 -2,6z"/>
   <path class="fil0" d="M7501 6348c2,3 3,5 4,5 -1,-2 -2,-4 -3,-6 0,0 -1,1 -1,1z"/>
   <path class="fil0" d="M8314 8305c-15,9 -24,13 -29,15 11,-4 22,-8 34,-11 0,-2 -1,-4 -5,-4z"/>
   <path class="fil0" d="M6990 8359c0,0 0,0 0,0l0 0c0,0 0,0 0,0z"/>
   <path class="fil0" d="M8069 8445c-23,-27 30,-50 45,-60 -2,13 -23,86 -45,60zm-166 70c18,-41 13,-14 124,-74 70,14 -187,135 -124,74zm-59 6c-11,21 -18,24 0,0 25,-31 59,17 0,0zm-290 193c75,27 -158,105 0,0zm-112 94c-23,9 -23,-16 -46,-8 9,-24 67,-14 46,8zm-361 -375c45,-19 83,-27 89,14 -55,-3 -31,-14 -89,-14zm-60 -154c-10,4 -20,7 -31,10 -14,-20 28,-34 31,-10zm-64 14c15,19 -28,18 -42,26 -4,-15 22,-19 42,-26zm-49 105c17,-24 42,-18 83,-38 -91,15 -160,16 52,-90 7,-41 -472,124 -345,-5 -1,71 30,42 99,-2 -10,-5 -19,-13 -23,-17 17,-4 24,5 34,10 40,-25 92,-54 158,-73 92,83 128,-59 232,-62 47,135 -366,148 24,130 -29,31 -272,92 -126,90 22,-4 36,-6 30,-1 -12,1 -21,1 -30,1 -27,5 -67,13 -104,20 4,34 -46,21 -83,38zm-110 107c30,-27 1,-22 83,-28 17,6 -146,71 -83,28zm-76 0c37,-11 38,-16 74,-18 -16,11 -64,51 -74,18zm20 -252c-9,17 25,53 -31,8 10,-3 0,0 31,-8zm46 -138c-11,2 -21,4 -20,12 -28,-5 14,-47 20,-12zm37 -56c12,-8 -18,70 0,0 -26,20 -43,13 0,0zm148 -10c-11,53 -76,36 -149,55 33,-37 69,-58 149,-55zm142 6c-22,30 -77,8 -101,37 9,-35 71,-26 101,-37zm13 -46c-41,9 -62,10 0,0 28,24 -189,73 0,0zm90 -48c-19,27 -9,-2 -37,19 0,-11 3,-20 37,-19zm-2 52c-7,14 -62,-28 31,-35 28,26 -60,27 -31,35zm88 -75c30,16 -59,95 -16,21 -9,-8 -18,-1 16,-21zm57 -21c136,9 -43,68 -56,7 5,5 118,-64 56,-7zm225 -96c8,22 -17,13 -33,34 -18,-15 21,-23 33,-34zm-939 506c-19,6 -37,-2 -56,5 -20,-43 71,-75 56,-5zm-113 22c0,-8 -30,-15 15,-21 4,5 29,22 -15,21zm-55 -190c43,27 -82,5 27,-16 6,9 2,14 -27,16zm-35 21c-8,-27 -69,28 -112,-14 -6,-33 125,-43 112,14zm-90 -73c13,33 -29,11 -36,12 -3,-13 30,-9 36,-12zm-212 43c27,-9 26,10 39,15 0,9 -41,1 -39,-15zm-82 -87c32,-4 47,8 54,28 -19,-8 -49,-6 -54,-28zm-13 25c-16,-2 -1,0 -36,-10 -2,2 -3,2 -2,-1 1,0 1,0 2,1 9,-7 37,-37 36,10zm1909 -448c9,13 -13,25 -29,38 -20,-13 19,-25 29,-38zm125 -79c8,33 -59,69 -79,74 -3,-31 69,-65 79,-74zm103 -60c10,14 0,0 16,27 -17,9 -26,21 -16,-27zm-915 701c-5,6 24,31 -22,21 -9,-11 -36,-23 22,-21zm430 -149c6,4 -26,16 3,20 7,14 -69,22 -3,-20zm2 224c-5,-19 84,-108 69,-39 -17,12 -26,22 -69,39zm80 -18c11,4 -62,62 -14,-10 26,-19 79,-10 14,10zm178 -38c4,-3 7,-4 8,-2 -3,1 -5,2 -8,2 -21,15 -74,81 -77,14 16,2 28,1 77,-14zm325 101c-288,98 -540,229 -794,192 -180,-145 533,-147 492,-305 154,-158 -162,104 -80,-85 -126,22 -64,2 110,-122 -166,71 -599,318 -495,297 80,-63 269,6 144,6 -128,124 -380,159 -182,93 38,-108 -361,147 -264,56 93,-51 -58,22 -36,-50 10,-26 88,25 80,-17 -79,-38 -195,53 -158,-25 6,20 154,-63 250,-105 -1,-1 -1,-1 -2,-2 2,0 5,-1 7,-1 66,-28 105,-34 47,36 -224,77 78,-7 -130,67 37,8 53,15 50,28 243,-197 430,-292 635,-439 -4,-5 -3,-12 14,-19 1,3 3,5 5,6 143,-104 295,-235 482,-444 -192,178 -401,335 -592,453 -7,22 -21,20 -38,23 -305,184 -557,266 -602,179 139,-67 1558,-918 1058,-744 213,-188 -377,247 -615,383 -111,-28 27,-24 307,-223 -612,303 -852,364 -1301,560 4,3 6,8 7,16 -10,-2 -22,-2 -31,-5 -28,12 -56,25 -86,38 51,-78 -110,-12 -34,-50 83,-39 66,-78 -51,-20 13,-91 -182,68 -250,-19 53,88 -153,47 -82,-4 222,-2 -70,-15 -146,-39 -7,0 -11,-1 -8,-3 2,1 5,2 8,3 40,0 190,-27 114,-40 -88,5 -140,16 -181,17 -2,3 -7,5 -16,5 2,-2 3,-4 4,-5 -2,0 -3,0 -5,0 0,84 0,167 0,251 -44,-14 -80,11 -80,57 0,384 0,595 0,979 -96,-30 -144,-44 -241,-71 0,-364 0,-555 0,-919 0,-79 -63,-160 -140,-179 -78,-20 -141,29 -141,108 0,364 0,555 0,919 -98,-23 -147,-34 -245,-53 0,-364 0,-555 0,-919 0,-79 -63,-155 -142,-169 -78,-14 -142,39 -142,118 0,364 0,555 0,919 -99,-16 -148,-23 -247,-36 0,-364 0,-555 0,-919 0,-79 -64,-150 -143,-159 -79,-8 -143,50 -143,128 0,364 0,555 0,919 -99,-9 -149,-12 -249,-18 0,-364 0,-555 0,-919 0,-78 -64,-146 -144,-149 -79,-3 -144,60 -144,138 0,364 0,555 0,919 -44,-1 -79,-1 -113,-1 60,36 121,71 183,105 1028,27 1909,261 2360,475 177,-18 364,-45 563,-83 8,77 1150,-334 707,-307 -387,97 -878,202 -1147,13 299,-117 112,-15 388,-125 994,-258 826,-151 1618,-688 3,-4 7,-10 14,-18 -10,-3 -13,-3 -6,-7z"/>
   <path class="fil0" d="M7554 8713c-21,29 -12,19 0,0z"/>
   <path class="fil0" d="M8313 8321c-12,8 -24,16 -36,24 -18,26 20,-4 36,-24z"/>
   <path class="fil0" d="M5951 6650c0,0 0,0 0,0 0,0 0,0 0,0z"/>
   <path class="fil0" d="M8019 7998c-2,1 -4,2 -5,2 64,14 42,-107 5,-2z"/>
   <path class="fil0" d="M7765 8263c6,-2 12,-3 17,-5 -2,-1 -7,0 -17,5z"/>
   <path class="fil0" d="M7650 5840c-1,-12 15,-20 9,-31 -6,8 -11,16 -17,24 2,2 4,5 7,7z"/>
   <path class="fil0" d="M7729 6088c0,0 0,0 0,0 5,4 7,6 0,0z"/>
   <path class="fil0" d="M7724 6661c2,-4 4,-9 5,-13 -4,2 -8,5 -12,7 2,2 4,4 7,6z"/>
   <path class="fil0" d="M7351 8255c2,-1 4,-2 6,-2 -2,0 -5,0 -7,1 1,1 1,1 2,2z"/>
   <path class="fil0" d="M6571 7570c3,1 5,3 8,4 -1,-4 -2,-8 -2,-13 -2,4 -3,6 -5,9z"/>
   <path class="fil0" d="M6677 8119c-8,3 -16,7 -24,10 9,3 21,3 31,5 -1,-7 -3,-12 -7,-16z"/>
   <path class="fil0" d="M5924 8012c-1,2 -2,3 -4,5 9,-1 14,-3 16,-5 -4,0 -8,0 -13,0z"/>
   <path class="fil0" d="M4757 4756c2,0 5,0 7,0 -3,-3 -6,-5 -10,-8 -1,2 0,4 3,8z"/>
   <path class="fil0" d="M4768 4760c0,0 -1,-1 -1,-1 -3,-1 -7,-2 -10,-3 4,2 8,3 11,4z"/>
   <path class="fil0" d="M1852 4018c0,0 0,0 0,0 -2,3 -6,10 -10,19 6,-10 9,-16 10,-19z"/>
   <path class="fil0" d="M1842 4037c0,-5 -1,-10 -1,-15 -3,1 -5,1 -7,2 1,8 4,13 8,13z"/>
   <path class="fil0" d="M4637 4864c-4,13 13,12 4,-4 -1,1 -2,2 -4,4z"/>
   <path class="fil0" d="M4646 4856c0,0 -1,1 -1,1 93,-32 43,-21 1,-1z"/>
   <path class="fil0" d="M4637 4864c1,-1 2,-2 4,-4 0,-1 -1,-1 -1,-2 -1,2 -2,4 -2,6z"/>
   <path class="fil0" d="M4645 4857c0,0 1,-1 1,-1 -2,1 -4,2 -6,3 2,-1 3,-1 5,-2z"/>
   <path class="fil0" d="M4736 3662c11,10 14,12 0,0z"/>
   <path class="fil0" d="M4736 3662c28,-25 -8,-8 0,0z"/>
   <path class="fil0" d="M1755 3532c5,-27 11,-41 0,0 53,-75 -20,-13 0,0z"/>
   <path class="fil0" d="M7869 7937c-17,13 -57,15 -58,32 7,-3 13,-5 19,-5 13,-8 25,-15 38,-23 0,-1 1,-2 1,-3z"/>
   <path class="fil0" d="M7868 7940c-13,8 -25,16 -38,23 17,-3 31,-1 38,-23z"/>
   <path class="fil0" d="M6122 7801c-131,56 108,71 180,29 49,-14 -156,-1 -180,-29z"/>
   <path class="fil0" d="M7760 6837c15,44 18,38 18,45 1,0 1,-1 2,-1 28,-91 9,-49 -20,-45z"/>
   <path class="fil0" d="M7779 6889c1,-2 1,-5 2,-7 -1,0 -1,1 -2,1 0,1 0,3 0,6z"/>
   <path class="fil0" d="M8741 5542c-7,10 -19,14 -18,36 18,9 23,-39 18,-36z"/>
   <path class="fil0" d="M8971 5610c-16,-86 -54,21 0,0z"/>
   <path class="fil0" d="M8971 5610c-12,33 7,29 0,0z"/>
   <path class="fil0" d="M8135 5493c-30,-16 -36,34 -53,49 14,0 51,-52 53,-49z"/>
   <path class="fil0" d="M7117 5344c-2,1 -4,1 -6,2 0,1 0,3 0,4 2,-2 4,-4 6,-6z"/>
   <path class="fil0" d="M7146 5322c-13,9 -23,16 -29,22 32,-10 28,-9 29,-22z"/>
   <path class="fil0" d="M7111 5350c-15,17 -2,18 0,0z"/>
   <path class="fil0" d="M8001 5600c-2,21 -34,0 -32,25 12,-3 44,-11 32,-25z"/>
   <path class="fil0" d="M8617 5828c-44,78 18,-27 22,12 66,-49 -106,-73 -22,-12z"/>
   <path class="fil0" d="M9624 6131c0,80 21,-27 29,-30 -26,13 -25,19 -29,30z"/>
   <path class="fil0" d="M8325 6322c-7,24 -13,36 0,0 33,-1 18,123 0,0zm-120 195c-2,-18 28,-43 48,-65 5,29 -24,58 -48,65zm-42 76c-3,-19 18,-26 29,-33 16,10 -12,53 -29,33zm328 -470c28,8 2,40 -8,52 -19,-10 -9,-54 8,-52zm-69 184c-28,28 -26,18 0,0 3,-1 5,-2 7,-3 88,-145 145,-290 139,-401 -11,34 -127,186 -63,40 -19,-50 -41,193 -128,357 -22,-91 129,-318 -30,-77 -50,20 -149,222 -234,386 7,-9 22,-17 26,-25 10,21 -17,23 -19,47 -9,-5 -12,-9 -12,-14 -39,77 -75,144 -100,180 141,-117 296,-294 407,-472 1,-5 3,-11 6,-19z"/>
   <path class="fil0" d="M8109 6619c2,-3 3,-6 5,-9 -3,3 -4,6 -5,9z"/>
   <path class="fil0" d="M8422 6308c-26,18 -28,28 0,0z"/>
   <path class="fil0" d="M8416 6327c5,-7 9,-14 13,-21 -2,0 -5,1 -7,3 -3,8 -5,14 -6,19z"/>
   <path class="fil0" d="M8050 5823c8,-12 1,-43 -9,-30 13,7 -10,26 9,30z"/>
   <path class="fil0" d="M9175 6374c41,-175 18,-137 10,-170 -18,196 -50,203 -10,170z"/>
   <path class="fil0" d="M7893 5792c-13,-14 -25,-18 -37,-16 -4,3 -8,4 -13,5 -42,25 -60,125 0,73 79,38 -41,-56 50,-61z"/>
   <path class="fil0" d="M7864 5762c-15,2 -27,7 -38,14 6,4 12,5 17,5 4,-2 8,-4 13,-5 7,-5 10,-11 8,-14z"/>
   <path class="fil0" d="M7843 5781c5,0 9,-2 13,-5 -5,1 -9,2 -13,5z"/>
   <path class="fil0" d="M7070 5454c-13,-7 -14,-1 -28,-11 -8,21 3,10 28,11z"/>
   <path class="fil0" d="M8422 6050c-76,154 14,-5 0,0z"/>
   <path class="fil0" d="M8422 6050c-19,28 -25,44 0,0z"/>
   <path class="fil0" d="M8679 6148l-23 -9c-33,57 -5,16 23,9z"/>
   <path class="fil0" d="M8319 6092c7,4 58,-49 33,-50 6,15 -27,29 -33,50z"/>
   <path class="fil0" d="M8156 6082c6,-14 68,-65 50,-79 -27,-23 -50,64 -50,79z"/>
   <path class="fil0" d="M9070 6497c71,-157 -12,-97 -13,-33 -68,247 -286,519 -494,712 235,-79 705,-896 507,-679z"/>
   <path class="fil0" d="M8173 6090c-8,19 11,29 14,44 5,27 8,-38 -14,-44z"/>
   <path class="fil0" d="M8658 6322c-37,78 -63,67 -24,80 -29,86 72,-144 24,-80z"/>
   <path class="fil0" d="M7806 6023c3,-6 9,-13 17,-21 -15,9 -19,16 -17,21z"/>
   <path class="fil0" d="M7803 6057c53,-14 8,-19 3,-33 -8,14 -6,24 -3,33z"/>
   <path class="fil0" d="M9141 6703c-48,86 -77,74 -62,117 41,-29 52,-95 62,-117z"/>
   <path class="fil0" d="M9079 6755c10,10 16,7 0,0z"/>
   <path class="fil0" d="M9079 6755c66,-85 -24,-25 0,0z"/>
   <path class="fil0" d="M8520 6452c4,16 6,24 7,30 9,-16 14,-33 -7,-30z"/>
   <path class="fil0" d="M8526 6490c0,-3 1,-5 0,-8 -13,23 -35,46 0,8z"/>
   <path class="fil0" d="M7916 6168c-11,-10 -35,-8 -39,7 15,5 25,-7 39,-7z"/>
   <path class="fil0" d="M8430 6610c6,18 -26,25 -15,46 -26,8 -2,-39 15,-46zm50 -49c-36,35 -53,-15 -93,94 -74,-47 -14,139 93,-94z"/>
   <path class="fil0" d="M7274 5865c-88,-8 -40,23 -84,49 -132,175 187,-74 84,-49z"/>
   <path class="fil0" d="M8862 7056c-21,85 82,-118 0,0z"/>
   <path class="fil0" d="M8862 7056c-16,27 -8,17 0,0z"/>
   <path class="fil0" d="M8385 6735c-55,-109 -290,297 -99,97 -126,167 203,-197 99,-97z"/>
   <path class="fil0" d="M8950 7302c-105,94 51,-13 67,-19 76,-141 -56,29 -67,19z"/>
   <path class="fil0" d="M8401 6995c17,-37 15,-42 12,-46 -71,59 -8,84 -12,46z"/>
   <path class="fil0" d="M9499 8080c56,-26 134,-102 151,-159 -49,89 -121,98 -151,159z"/>
   <path class="fil0" d="M8831 7484c41,34 54,38 70,41 15,-144 -22,-40 -70,-41z"/>
   <path class="fil0" d="M7945 7125c8,-6 15,-12 22,-17 -7,2 -22,10 -22,17z"/>
   <path class="fil0" d="M7799 7277c-23,-31 19,-33 44,-62 6,21 -37,41 -44,62zm-77 56c-6,-22 18,-42 36,-20 -22,6 -20,18 -36,20zm246 -225c7,-2 7,3 -21,20 27,6 16,3 0,0 -1,-1 -1,-2 -1,-3 -212,164 -566,402 -1065,592 272,-56 481,-144 661,-250 4,-6 11,-15 23,-26 2,3 4,6 5,9 201,-122 367,-267 547,-412 123,-185 74,-106 -150,70z"/>
   <path class="fil0" d="M7542 7466c10,-6 19,-11 29,-17 -2,-2 -4,-5 -5,-9 -12,11 -19,20 -23,26z"/>
   <path class="fil0" d="M7990 7048c40,-11 49,-19 60,-27 -136,27 -38,92 -60,27z"/>
   <path class="fil0" d="M8940 7487c-14,31 -38,36 -30,56 29,-7 35,-71 30,-56z"/>
   <path class="fil0" d="M8395 7148c19,-14 18,-63 -1,-38 28,7 -27,31 1,38z"/>
   <path class="fil0" d="M8457 7139c-17,-24 -65,18 -53,26 15,-28 35,-8 53,-26z"/>
   <path class="fil0" d="M8730 7376c29,-31 14,14 25,19 42,-31 -35,-50 -25,-19z"/>
   <path class="fil0" d="M8827 7460c-16,-22 -29,-7 -15,-1 -46,68 54,-22 15,1z"/>
   <path class="fil0" d="M9409 7971c-47,66 75,-57 64,-52 -37,27 -43,35 -64,52z"/>
   <path class="fil0" d="M8741 7495c1,0 2,0 3,-1 -1,0 -2,0 -3,1z"/>
   <path class="fil0" d="M8741 7495c-85,20 -78,20 -36,34 11,6 26,-29 36,-34z"/>
   <path class="fil0" d="M8499 7656c69,-87 -50,99 60,-26 48,-143 -125,23 -60,26z"/>
   <path class="fil0" d="M7953 7060c-1,-23 20,-22 23,-42 -20,2 -33,28 -23,42z"/>
   <path class="fil0" d="M7462 6531c-42,-11 -34,51 0,0z"/>
   <path class="fil0" d="M8592 7789c17,-37 53,-78 49,-110 -7,41 -64,85 -49,110z"/>
   <path class="fil0" d="M7485 6620c0,23 -37,41 -31,65 25,-16 43,-51 31,-65z"/>
   <path class="fil0" d="M8389 7703c-275,338 110,-7 83,-2 10,-93 -80,92 -83,2z"/>
   <path class="fil0" d="M7676 6929c-6,-1 -4,4 0,0z"/>
   <path class="fil0" d="M7676 6929c48,-51 -14,-38 0,0z"/>
   <path class="fil0" d="M8143 7362c-29,30 -20,19 0,0 -127,80 36,20 0,0z"/>
   <path class="fil0" d="M8560 7795c-26,25 -16,17 0,0z"/>
   <path class="fil0" d="M8560 7795c-37,87 24,-16 0,0z"/>
   <path class="fil0" d="M8608 7841c0,0 0,0 1,0 0,-1 0,-1 -1,0z"/>
   <path class="fil0" d="M8608 7841c-75,7 -49,24 -67,22 -3,34 59,-17 67,-22z"/>
   <path class="fil0" d="M7667 6937c-15,-75 -42,-29 -12,-13 -57,44 5,11 12,13z"/>
   <path class="fil0" d="M7548 6798c-17,45 9,-2 0,0z"/>
   <path class="fil0" d="M7548 6798c-26,7 -34,17 0,0z"/>
   <path class="fil0" d="M7986 7317c-39,41 -53,47 -68,52 91,21 66,-26 68,-52z"/>
   <path class="fil0" d="M8161 7588c5,1 9,2 13,2 -4,0 -11,-5 -13,-2z"/>
   <path class="fil0" d="M8174 7590c35,0 23,-48 -2,-13 5,10 4,13 2,13z"/>
   <path class="fil0" d="M8479 7853c-4,9 -7,16 -9,19 12,0 25,-6 9,-19z"/>
   <path class="fil0" d="M8470 7872c1,-3 4,-10 10,-19 -29,12 -21,19 -10,19z"/>
   <path class="fil0" d="M8471 7872c0,0 -1,0 -1,0 -2,4 -1,4 1,0z"/>
   <path class="fil0" d="M7011 6311c-14,-45 -2,-31 4,-20 -23,-92 -19,40 -4,20z"/>
   <path class="fil0" d="M8630 8105c-181,173 40,0 0,0z"/>
   <path class="fil0" d="M8630 8105c-58,46 -37,31 0,0z"/>
   <path class="fil0" d="M8416 7927c-68,-37 -133,51 -132,-25 -9,238 39,109 132,25z"/>
   <path class="fil0" d="M7663 7177c-14,3 -7,65 0,0z"/>
   <path class="fil0" d="M7663 7177c-25,-13 -36,-2 0,0z"/>
   <path class="fil0" d="M8058 7992c28,51 171,-3 67,-12 305,-182 28,-92 -67,12z"/>
   <path class="fil0" d="M7701 7264c56,1 -35,-38 -13,-5 21,-12 1,38 13,5z"/>
   <path class="fil0" d="M7950 7526c-94,24 -63,44 -133,73 99,-13 111,-64 133,-73z"/>
   <path class="fil0" d="M8503 8150c-31,34 -53,36 -69,64 33,-30 73,-27 69,-64z"/>
   <path class="fil0" d="M8490 8191c-35,14 -22,10 0,0z"/>
   <path class="fil0" d="M8490 8191c-93,59 21,24 0,0z"/>
   <path class="fil0" d="M7669 7257c-74,12 30,48 0,0 -24,34 -16,22 0,0z"/>
   <path class="fil0" d="M8204 7967c-29,37 -16,37 -15,44 -24,67 39,-48 15,-44z"/>
   <path class="fil0" d="M7559 7211c17,-20 9,-23 -3,-19 -4,7 -7,14 -10,21 3,0 7,-1 12,-1z"/>
   <path class="fil0" d="M7559 7211c-15,33 -4,26 0,0z"/>
   <path class="fil0" d="M7547 7212c3,-7 6,-14 10,-21 -15,5 -37,22 -10,21z"/>
   <path class="fil0" d="M7573 7239c41,92 31,-17 0,0z"/>
   <path class="fil0" d="M7573 7239c-12,8 -15,12 0,0z"/>
   <path class="fil0" d="M8296 8197c30,-22 11,-41 31,-62 -32,22 -25,42 -31,62z"/>
   <path class="fil0" d="M8380 8195c-99,59 -165,99 -207,129 44,17 171,-73 207,-129z"/>
   <path class="fil0" d="M8497 8475c98,-54 57,-62 0,0z"/>
   <path class="fil0" d="M8215 8143c22,-2 50,-32 53,-48 -21,36 -56,20 -53,48z"/>
   <path class="fil0" d="M8157 8101c-109,-50 -19,27 -65,32 154,32 135,-111 65,-32z"/>
   <path class="fil0" d="M7571 7302c31,37 28,-30 0,0z"/>
   <path class="fil0" d="M7571 7302c-4,18 0,11 0,0z"/>
   <path class="fil0" d="M8066 8100c30,-2 44,-38 56,-56 -21,3 -35,38 -56,56z"/>
   <path class="fil0" d="M7546 7379c-3,6 3,5 0,0z"/>
   <path class="fil0" d="M7546 7379c18,-50 -29,-2 0,0z"/>
   <path class="fil0" d="M7658 7569c0,0 0,1 0,1 4,0 3,0 0,-1z"/>
   <path class="fil0" d="M7641 7559c-97,-9 -2,6 16,10 -6,-50 -9,-19 -16,-10z"/>
   <path class="fil0" d="M8087 8154c-27,5 -33,15 -39,24 17,59 21,-11 39,-24z"/>
   <path class="fil0" d="M8087 8154c3,-1 6,-1 9,-1 -3,-1 -6,-1 -9,1z"/>
   <path class="fil0" d="M6773 6454c-13,12 -16,20 0,0z"/>
   <path class="fil0" d="M6773 6454c-4,68 3,-6 0,0z"/>
   <path class="fil0" d="M7873 8403c-53,11 -45,27 -18,40 61,6 -8,-32 18,-40z"/>
   <path class="fil0" d="M7873 8403c2,0 3,-1 5,-1 -2,0 -3,1 -5,1z"/>
   <path class="fil0" d="M6748 6483c2,15 -14,-2 -13,0 39,36 14,-12 13,0z"/>
   <path class="fil0" d="M7287 7491c-69,46 -9,25 4,33 -4,-33 1,-18 -4,-33z"/>
   <path class="fil0" d="M7579 8029c-7,4 -12,7 -16,8 1,12 13,26 16,-8z"/>
   <path class="fil0" d="M7564 8037c0,-1 0,-1 0,-2 -8,4 -7,5 0,2z"/>
   <path class="fil0" d="M7564 8035c3,-2 9,-4 16,-6 -12,-6 -16,-1 -16,6z"/>
   <path class="fil0" d="M7796 8374c3,0 3,0 0,0z"/>
   <path class="fil0" d="M7755 8383c18,-5 35,-8 41,-9 -4,1 -12,2 -27,3 -8,2 -12,4 -14,5z"/>
   <path class="fil0" d="M7713 8430c39,-34 35,-42 42,-48 -34,9 -70,25 -42,48z"/>
   <path class="fil0" d="M7910 8658c-43,18 -51,14 -47,-2 -119,66 67,16 47,2z"/>
   <path class="fil0" d="M7950 8776c0,29 17,58 -5,86 56,-22 5,-96 5,-86z"/>
   <path class="fil0" d="M6625 6561c-37,30 88,-2 88,-3 -60,-1 -68,-17 -88,3z"/>
   <path class="fil0" d="M7785 8889c-10,-23 48,-40 44,-62 -24,17 -76,58 -44,62z"/>
   <path class="fil0" d="M7181 7663c-44,20 -29,14 0,0z"/>
   <path class="fil0" d="M7181 7663c-134,90 29,6 0,0z"/>
   <path class="fil0" d="M7220 7835c-30,21 -108,22 -115,64 23,-33 85,-25 115,-64z"/>
   <path class="fil0" d="M7346 8121c1,-1 3,-1 4,-1 -4,0 -5,1 -4,1z"/>
   <path class="fil0" d="M7363 8119c-9,3 -16,3 -17,2 -16,9 28,40 17,-2z"/>
   <path class="fil0" d="M7363 8119c-6,-1 -10,0 -13,0 3,0 7,-1 13,0z"/>
   <path class="fil0" d="M6902 7558c-3,-30 35,27 35,0 -7,-14 -55,-15 -35,0z"/>
   <path class="fil0" d="M6904 7616c-6,19 -3,21 0,0z"/>
   <path class="fil0" d="M6904 7616c76,3 5,-1 0,0z"/>
   <path class="fil0" d="M6292 5937c-10,17 -5,34 0,0z"/>
   <path class="fil0" d="M6292 5937c73,10 34,-4 0,0z"/>
   <path class="fil0" d="M6931 7835c132,33 11,-87 -48,-87 110,120 -22,63 -58,73 -67,73 92,52 106,14z"/>
   <path class="fil0" d="M6993 7897c-16,-11 -28,-27 -49,-27 12,18 25,32 49,27z"/>
   <path class="fil0" d="M6863 7677c11,-12 19,-7 27,-4 -55,-56 -30,29 -27,4z"/>
   <path class="fil0" d="M6407 7949c36,4 20,4 55,-10 7,26 -55,47 -55,10zm440 -239c-807,99 -374,452 -308,188 -137,42 156,-74 -5,-49 -254,-8 319,-33 313,-139z"/>
   <path class="fil0" d="M6818 7679c1,-5 2,-12 4,-19 -11,8 -9,14 -4,19z"/>
   <path class="fil0" d="M6818 7679c-1,13 0,20 -1,27 40,-13 13,-18 1,-27z"/>
   <path class="fil0" d="M6472 6603c-44,-24 -31,-10 0,0z"/>
   <path class="fil0" d="M6472 6603c-32,6 -51,11 0,0z"/>
   <path class="fil0" d="M6936 8222c8,-5 19,-10 31,-17 -28,15 -35,19 -31,17z"/>
   <path class="fil0" d="M6967 8205c-15,9 -27,15 -31,17 -117,67 88,7 31,-17z"/>
   <path class="fil0" d="M6719 7577c-13,-3 -8,0 0,0z"/>
   <path class="fil0" d="M6719 7577c-41,6 37,30 0,0z"/>
   <path class="fil0" d="M6456 7103c-2,-4 -4,-9 -5,-15 -7,12 -4,15 5,15z"/>
   <path class="fil0" d="M6530 7071c13,-7 18,-11 0,0z"/>
   <path class="fil0" d="M6516 7079c5,-3 10,-6 13,-8 -19,11 -57,31 -74,33 17,27 76,-6 60,-25z"/>
   <path class="fil0" d="M6820 7949c-21,-26 -13,-15 0,0z"/>
   <path class="fil0" d="M6820 7949c-52,-42 -6,30 0,0z"/>
   <path class="fil0" d="M6392 6616c35,-14 -35,-55 -41,-19 -20,2 40,6 41,19z"/>
   <path class="fil0" d="M6710 7836c-98,15 -23,41 -1,19 -22,-18 6,-13 1,-19z"/>
   <path class="fil0" d="M6678 7952c-18,-4 -12,-1 0,0z"/>
   <path class="fil0" d="M6678 7952c-57,2 39,23 0,0z"/>
   <path class="fil0" d="M6491 7594c2,-4 4,-8 7,-13 -5,5 -7,10 -7,13z"/>
   <path class="fil0" d="M6483 7628c51,-21 6,-16 8,-34 -8,17 -6,25 -8,34z"/>
   <path class="fil0" d="M6225 6589c-18,60 29,37 39,25 40,-29 -45,-3 -39,-25z"/>
   <path class="fil0" d="M6786 9230c-56,-28 -35,-22 -62,-8 52,43 101,-11 62,8z"/>
   <path class="fil0" d="M6609 9102c-42,7 -62,12 0,0z"/>
   <path class="fil0" d="M6609 9102c-218,59 19,18 0,0z"/>
   <path class="fil0" d="M6312 7772c-52,-24 -66,-2 -38,18 69,3 0,-32 38,-18z"/>
   <path class="fil0" d="M6294 8010c5,6 78,-12 0,0z"/>
   <path class="fil0" d="M6294 8010c-6,20 -3,23 0,0z"/>
   <path class="fil0" d="M6274 7970c10,40 -20,23 -37,27 -52,41 136,-31 37,-27z"/>
   <path class="fil0" d="M6213 7730c-70,-11 -33,7 -25,20 25,-20 33,4 25,-20z"/>
   <path class="fil0" d="M6180 7961c-36,-2 -31,8 0,0z"/>
   <path class="fil0" d="M6180 7961c-51,62 14,12 0,0z"/>
   <path class="fil0" d="M6027 7782c44,2 39,-1 59,-16 0,-5 -69,12 -59,16z"/>
   <path class="fil0" d="M6060 7694c5,84 4,-21 0,0z"/>
   <path class="fil0" d="M6060 7694c-13,-2 -18,12 0,0z"/>
   <path class="fil0" d="M5881 9765c-89,-21 -89,-7 -145,-8 -36,22 370,-1 145,8z"/>
   <path class="fil0" d="M5797 6448c3,-5 7,-9 11,-15 -3,1 -10,5 -11,15z"/>
   <path class="fil0" d="M5812 6488c-14,-19 -17,-31 -15,-40 -28,42 -1,56 15,40z"/>
   <path class="fil0" d="M5809 6433c0,0 0,0 -1,1 1,-1 2,-1 1,-1z"/>
   <path class="fil0" d="M5508 6169c0,0 -1,0 -1,0 1,4 1,3 1,0z"/>
   <path class="fil0" d="M5508 6169c15,-6 12,-1 16,-7 -13,-43 -15,-5 -16,7z"/>
   <path class="fil0" d="M5535 5771c-13,-19 -45,-29 0,0z"/>
   <path class="fil0" d="M5551 5781c-6,-4 -11,-7 -16,-10 5,7 7,16 2,24 19,14 58,-3 14,-14z"/>
   <path class="fil0" d="M3469 8986c-11,8 17,36 66,73 14,0 28,0 42,0 -34,-21 -69,-45 -108,-72z"/>
   <path class="fil0" d="M3382 8978c11,-89 -65,-56 -117,-117 -41,1 113,97 117,117z"/>
   <path class="fil0" d="M5567 5253c-6,2 -30,17 0,0z"/>
   <path class="fil0" d="M5567 5253c-1,-9 -9,-2 0,0z"/>
   <path class="fil0" d="M5542 5255c6,-6 13,-10 21,-13 -6,-15 -32,26 -21,13z"/>
   <path class="fil0" d="M5406 5275c-45,20 -13,15 -47,28 7,8 36,-21 47,-28z"/>
   <path class="fil0" d="M1895 7449c-8,2 -16,4 -24,6l0 -29c-19,-18 -18,-19 0,-12l0 -3c-95,-76 27,96 102,164 11,-2 21,-4 32,-7 -49,-56 -85,-94 -110,-118z"/>
   <path class="fil0" d="M1581 6981c22,-5 6,-73 -4,-79 8,31 -5,48 4,79z"/>
   <path class="fil0" d="M5001 5125c-40,-12 -4,5 4,7 -9,56 44,-44 -4,-7z"/>
   <path class="fil0" d="M5014 5104c-12,-4 -23,-9 -46,-5 14,10 21,4 46,5z"/>
   <path class="fil0" d="M4909 4868c8,-5 41,-18 39,-28 -10,-36 -41,7 -39,28z"/>
   <path class="fil0" d="M5012 4721c-4,-1 -39,2 -31,5 -1,1 28,-2 31,-5z"/>
   <path class="fil0" d="M4473 4504c11,12 -13,16 2,28 17,-7 7,-28 -2,-28z"/>
   <path class="fil0" d="M1848 3904c14,-39 25,-35 37,-26 5,-115 -60,23 -37,26z"/>
   <path class="fil0" d="M1808 3827c-6,-74 7,-86 22,-101 -39,-82 -31,101 -22,101z"/>
   <path class="fil0" d="M4480 4372c9,31 59,28 81,29 -70,-23 -44,-39 -81,-29z"/>
   <path class="fil0" d="M1220 3651c6,-12 -9,-8 -7,-25 -49,115 21,66 7,25z"/>
   <path class="fil0" d="M1850 3604c150,-266 -55,1 0,0z"/>
   <path class="fil0" d="M1850 3604c49,-73 31,-49 0,0z"/>
   <path class="fil0" d="M1985 3328c22,-4 4,29 14,35 -15,24 -32,-7 -14,-35zm-62 91c18,93 -2,-72 49,-45 2,99 -8,50 72,-30 -3,83 118,-197 -42,10 63,-199 -194,155 -79,65z"/>
   <path class="fil0" d="M1365 3402c-18,-110 -65,55 -61,60 18,-44 44,-66 61,-60z"/>
   <path class="fil0" d="M4672 4338c8,15 1,11 8,15 34,6 -6,-13 -8,-15z"/>
   <path class="fil0" d="M4672 4338c0,0 0,0 0,0z"/>
   <path class="fil0" d="M2707 3407c10,-60 8,-74 5,-90 -64,85 -6,80 -5,90z"/>
   <path class="fil0" d="M4672 4173c-70,-70 -122,-12 -41,-12 19,47 32,2 41,12z"/>
   <path class="fil0" d="M2433 2868c41,-131 119,-27 141,-158 -66,87 -144,59 -141,158z"/>
   <path class="fil0" d="M2917 2841c21,2 52,-38 37,-50 -14,36 -15,25 -37,50z"/>
   <path class="fil0" d="M2919 2802c-78,66 112,-98 62,4 168,-260 -234,63 -62,-4z"/>
   <path class="fil0" d="M2641 2410c2,-2 3,-5 5,-7 -7,2 -6,3 -5,7z"/>
   <path class="fil0" d="M2600 2491c40,-55 41,-73 41,-81 -41,56 -45,93 -41,81z"/>
   <path class="fil0" d="M3133 2600c76,2 40,-50 65,-45 108,-96 -67,16 -65,45z"/>
   <path class="fil0" d="M4318 2833c11,-33 23,-10 24,-10 25,-50 -49,17 -24,10z"/>
   <path class="fil0" d="M3655 1887c-95,12 -57,-68 -165,126 11,31 166,-95 165,-126z"/>
   <path class="fil0" d="M3708 1937c0,1 -1,1 -1,2 1,1 1,0 1,-2z"/>
   <path class="fil0" d="M3755 1906c-56,-25 -47,20 -47,31 23,-42 27,-32 47,-31z"/>
   <path class="fil0" d="M5091 879c73,-68 -387,-130 -424,41 162,34 387,-6 424,-41z"/>
   <path class="fil0" d="M5192 887c0,0 -1,0 -1,1 0,0 1,0 1,0 0,0 0,-1 0,-1z"/>
   <path class="fil0" d="M5191 888c-113,-22 -83,60 0,0z"/>
   <path class="fil0" d="M5213 893c-8,-2 -14,-4 -21,-5 -26,92 81,21 21,5z"/>
   <path class="fil0" d="M8686 4204c-30,16 -29,27 -25,42 48,-8 97,58 25,-42z"/>
   <path class="fil0" d="M7102 5557c-63,78 292,-145 227,-266 -110,36 -259,262 -227,266z"/>
   <path class="fil0" d="M9121 6987c-60,-14 0,73 -42,51 -62,144 71,-31 62,-44 -5,-2 -9,-3 -13,-5 -5,3 -7,2 -8,-2z"/>
   <path class="fil0" d="M9128 6989c-3,-1 -5,-2 -8,-2 0,4 3,5 8,2z"/>
   <path class="fil0" d="M8689 6975c-32,19 -21,13 0,0z"/>
   <path class="fil0" d="M8689 6975c-108,66 40,48 0,0z"/>
   <path class="fil0" d="M8525 7201c-74,56 -70,111 -98,141 173,-103 142,-119 98,-141z"/>
   <path class="fil0" d="M8539 7447c120,-25 137,-159 190,-215 -202,186 -138,182 -190,215z"/>
   <path class="fil0" d="M5463 5260c207,-67 -42,-24 -44,-12 -89,46 68,8 44,12z"/>
   <path class="fil0" d="M5001 5222c-13,-4 -21,-9 -36,-7 3,23 19,11 36,7z"/>
   <path class="fil0" d="M3926 2857c28,13 168,-222 197,-255 -147,87 -113,171 -197,255z"/>
   <path class="fil0" d="M4123 2603c1,0 1,-1 2,-1 0,0 0,-1 0,-1 -1,1 -2,1 -3,3z"/>
   <path class="fil0" d="M4126 2600c0,0 0,1 0,1 1,-1 2,-1 3,-2 0,-1 -1,-1 -2,0z"/>
   <path class="fil0" d="M4337 1894c432,-407 -366,65 -384,207 116,-182 261,-102 384,-207z"/>
   <path class="fil0" d="M4465 1007c-265,-119 -287,50 -332,52 207,7 192,-56 332,-52z"/>
   <g style="clip-path:url(#id0)">
    <image x="627" y="1748" width="8141" height="8214" xlink:href="logo_Images\logo_ImgID1.png"/>
   </g>
  </g>
 </g>
</svg>
